<?xml version="1.0" encoding="utf-8"?>
<!-- Generator: Adobe Illustrator 22.1.0, SVG Export Plug-In . SVG Version: 6.00 Build 0)  -->
<svg version="1.1" class="share--copy-link" xmlns="http://www.w3.org/2000/svg" xmlns:xlink="http://www.w3.org/1999/xlink" x="0px" y="0px"
	 viewBox="0 0 30 30" style="enable-background:new 0 0 30 30;" xml:space="preserve">
<style type="text/css">
	.share--copy-link .st0{clip-path:url(#SVGID_2_);}
	.share--copy-link .st1{clip-path:url(#SVGID_4_);fill:#9B9B9B;}
	.share--copy-link .st2{clip-path:url(#SVGID_6_);}
	.share--copy-link .st3{clip-path:url(#SVGID_8_);fill:#9B9B9B;}
</style>
<g>
	<g>
		<defs>
			<path id="SVGID_1_" d="M11.2,13.4c1.2-1.2,3.2-1.2,4.4,0l1.1,1.1c0.6,0.6,1.6,0.6,2.2,0c0.6-0.6,0.6-1.6,0-2.2l-1.1-1.1
				C16.6,10,15,9.3,13.4,9.3c-1.7,0-3.2,0.6-4.4,1.8l-7.1,7.1c-2.4,2.4-2.4,6.4,0,8.8L3,28.2C4.1,29.4,5.7,30,7.3,30
				s3.2-0.6,4.4-1.8l3.4-3.4c0.6-0.6,0.6-1.6,0-2.2c-0.6-0.6-1.6-0.6-2.2,0L9.5,26c-1.2,1.2-3.2,1.2-4.4,0l-1.1-1.1
				c-1.2-1.2-1.2-3.2,0-4.4L11.2,13.4"></path>
		</defs>
		<clipPath id="SVGID_2_">
			<use xlink:href="#SVGID_1_"  style="overflow:visible;"></use>
		</clipPath>
		<g class="st0">
			<defs>
				<rect id="SVGID_3_" x="-402.1" y="-327.5" width="851.4" height="1221.9"></rect>
			</defs>
			<clipPath id="SVGID_4_">
				<use xlink:href="#SVGID_3_"  style="overflow:visible;"></use>
			</clipPath>
			<rect x="-2.1" y="7.1" class="st1" width="23.6" height="25.1"></rect>
		</g>
	</g>
	<g>
		<defs>
			<path id="SVGID_5_" d="M21,18.8l7.1-7.1c1.2-1.2,1.8-2.7,1.8-4.4c0-1.7-0.6-3.2-1.8-4.4L27,1.8C25.9,0.6,24.3,0,22.7,0
				c-1.7,0-3.2,0.6-4.4,1.8l-3.1,3.1c-0.6,0.6-0.6,1.6,0,2.2c0.6,0.6,1.6,0.6,2.2,0L20.5,4c0.6-0.6,1.4-0.9,2.2-0.9
				c0.8,0,1.6,0.3,2.2,0.9l1.1,1.1c0.6,0.6,0.9,1.4,0.9,2.2c0,0.8-0.3,1.6-0.9,2.2l-7.1,7.1c-1.2,1.2-3.2,1.2-4.4,0
				c-0.6-0.6-1.6-0.6-2.2,0c-0.6,0.6-0.6,1.6,0,2.2c1.2,1.2,2.7,1.8,4.4,1.8C18.3,20.7,19.8,20,21,18.8"></path>
		</defs>
		<clipPath id="SVGID_6_">
			<use xlink:href="#SVGID_5_"  style="overflow:visible;"></use>
		</clipPath>
		<g class="st2">
			<defs>
				<rect id="SVGID_7_" x="-402.1" y="-327.5" width="851.4" height="1221.9"></rect>
			</defs>
			<clipPath id="SVGID_8_">
				<use xlink:href="#SVGID_7_"  style="overflow:visible;"></use>
			</clipPath>
			<rect x="9.6" y="-2.2" class="st3" width="22.6" height="25.1"></rect>
		</g>
	</g>
</g>
</svg>
