<?xml version="1.0" encoding="utf-8"?>
<!-- Generator: Adobe Illustrator 22.1.0, SVG Export Plug-In . SVG Version: 6.00 Build 0)  -->
<svg version="1.1" class="share__email--hover" xmlns="http://www.w3.org/2000/svg" xmlns:xlink="http://www.w3.org/1999/xlink" x="0px" y="0px"
	 viewBox="0 0 30 19.9" style="enable-background:new 0 0 30 19.9;" xml:space="preserve">
<style type="text/css">
	.share__email--hover .st0{clip-path:url(#SVGID_2_);}
	.share__email--hover .st1{clip-path:url(#SVGID_4_);fill:#FFFFFF;}
	.share__email--hover .st2{clip-path:url(#SVGID_6_);}
	.share__email--hover .st3{clip-path:url(#SVGID_8_);fill:#1F055E;}
</style>
<g>
	<g>
		<defs>
			<path id="SVGID_1_" d="M30,17.4c0,1.3-1.2,2.5-2.5,2.5h-25c-1.3,0-2.5-1.2-2.5-2.5V2.5C0,1.2,1.2,0,2.5,0h25
				C28.8,0,30,1.2,30,2.5V17.4z"/>
		</defs>
		<clipPath id="SVGID_2_">
			<use xlink:href="#SVGID_1_"  style="overflow:visible;"/>
		</clipPath>
		<g class="st0">
			<defs>
				<rect id="SVGID_3_" x="-400.1" y="-268.3" width="847.1" height="1206.2"/>
			</defs>
			<clipPath id="SVGID_4_">
				<use xlink:href="#SVGID_3_"  style="overflow:visible;"/>
			</clipPath>
			<rect x="-2.2" y="-2.2" class="st1" width="34.4" height="24.3"/>
		</g>
	</g>
	<g>
		<defs>
			<path id="SVGID_5_" d="M27.2,15.1c0.4,0.3,0.4,0.8,0.1,1.2c-0.2,0.2-0.4,0.3-0.7,0.3c-0.2,0-0.4-0.1-0.5-0.2l-7.9-6.3l-2.8,2.2
				c-0.2,0.1-0.3,0.2-0.5,0.2s-0.4-0.1-0.5-0.2l-2.8-2.2l-7.9,6.3c-0.2,0.1-0.3,0.2-0.5,0.2c-0.2,0-0.5-0.1-0.7-0.3
				c-0.3-0.4-0.2-0.9,0.1-1.2l7.6-6.1L2.8,3.1C2.5,2.9,2.4,2.3,2.7,2C3,1.6,3.5,1.6,3.8,1.8L15,10.6l11.2-8.7
				C26.5,1.6,27,1.6,27.3,2c0.3,0.4,0.2,0.9-0.1,1.2l-7.6,5.9L27.2,15.1z"/>
		</defs>
		<clipPath id="SVGID_6_">
			<use xlink:href="#SVGID_5_"  style="overflow:visible;"/>
		</clipPath>
		<g class="st2">
			<defs>
				<rect id="SVGID_7_" x="-400.1" y="-268.3" width="847.1" height="1206.2"/>
			</defs>
			<clipPath id="SVGID_8_">
				<use xlink:href="#SVGID_7_"  style="overflow:visible;"/>
			</clipPath>
			<rect x="0.3" y="-0.5" class="st3" width="29.4" height="19.4"/>
		</g>
	</g>
</g>
</svg>
