<svg xmlns="http://www.w3.org/2000/svg" role="presentation" viewBox="0 0 36 36" preserveAspectRatio="xMinYMin meet"><path fill-rule="evenodd" clip-rule="evenodd" fill="#DD4B39" d="M5.4 0h25.2c3 0 5.4 2.4 5.4 5.4v25.2c0 3-2.4 5.4-5.4 5.4h-25.2c-3 0-5.4-2.4-5.4-5.4v-25.2c0-3 2.4-5.4 5.4-5.4z"/><path fill-rule="evenodd" clip-rule="evenodd" fill="#fff" d="M18.3 19.9l-.9-.7-.4-.4c-.2-.2-.2-.4-.2-.7 0-.3.1-.5.2-.7.1-.2.3-.4.4-.5l.8-.7c.2-.2.4-.5.6-.8.4-.6.6-1.3.6-2.2 0-.5-.1-1-.2-1.3-.1-.4-.3-.7-.5-1l-.6-.8c-.2-.2-.4-.3-.6-.4h1.6l1.6-.9h-5.2c-.7 0-1.4.1-2.2.2-.6 0-1.4.4-2.1 1-1.1 1-1.6 2.2-1.6 3.5 0 1.1.4 2 1.1 2.8.7.9 1.8 1.3 3.2 1.3.3 0 .5 0 .8-.1 0 .1-.1.3-.2.4-.1.2-.1.3-.1.6 0 .4.1.7.3 1 .1.3.3.5.5.8-.6 0-1.4.1-2.3.2-.9.2-1.8.5-2.7 1-.8.4-1.3 1-1.6 1.6-.3.6-.4 1.1-.4 1.6 0 1 .5 1.8 1.4 2.6.9.8 2.3 1.2 4.1 1.2 2.2 0 3.8-.6 5-1.6 1.1-1 1.7-2.1 1.7-3.4 0-.9-.2-1.6-.6-2.2-.4-.4-.9-.9-1.5-1.4zm-3.2-3c-.5 0-1-.2-1.4-.5-.4-.3-.8-.7-1-1.2-.6-1-.8-2-.8-3 0-.7.2-1.4.6-1.9.5-.6 1.1-.8 1.8-.9.5 0 1 .2 1.4.5.4.3.7.7 1 1.2.5 1 .8 2.1.8 3.1 0 .2 0 .5-.1.9-.1.3-.2.7-.4 1-.7.5-1.2.8-1.9.8zm2.7 9.7c-.6.5-1.6.8-2.8.8-1.4 0-2.4-.3-3.2-.9-.8-.6-1.2-1.4-1.2-2.3 0-.5.1-.9.3-1.2.2-.3.4-.6.6-.8.2-.2.5-.4.7-.5.2-.1.4-.2.6-.2.6-.2 1.1-.3 1.7-.4.5-.1.9-.1 1-.1h.6c1 .7 1.7 1.3 2.1 1.7.4.5.6 1.1.6 1.7-.1 1-.4 1.7-1 2.2zm8.4-10.1v-4h-2v4h-4v2h4v4h2v-4h4v-2h-4z"/></svg>
