<svg xmlns="http://www.w3.org/2000/svg" role="presentation" viewBox="0 0 36 36" preserveAspectRatio="xMinYMin meet"><path fill-rule="evenodd" clip-rule="evenodd" fill="#BCBCBC" d="M27.4 13.2v1.8c0 1.9-1.5 3.5-3.5 3.5h-12.1c-1.9 0-3.5-1.5-3.5-3.5v-1.7c-1.9 0-3.5 1.5-3.5 3.5v6.9c0 1.9 1.5 3.5 3.5 3.5h19c1.9 0 3.5-1.5 3.5-3.5v-6.9c.1-2-1.5-3.6-3.4-3.6zm0 10.4h-3.5v-1.7h3.5v1.7zm-13.8-6.9h8.7c1.9 0 3.5-1.5 3.5-3.5v-1.7c0-1.9-1.5-3.5-3.5-3.5h-8.7c-1.9 0-3.5 1.5-3.5 3.5v1.7c0 1.9 1.6 3.5 3.5 3.5z"/></svg>
