<?xml version="1.0" encoding="UTF-8"?>
<svg width="37px" height="30px" viewBox="0 0 37 30" version="1.1" xmlns="http://www.w3.org/2000/svg" xmlns:xlink="http://www.w3.org/1999/xlink">
    <g id="Nav/Footer" stroke="none" stroke-width="1" fill="none" fill-rule="evenodd">
        <g id="1440-Footer" transform="translate(-673.000000, -581.000000)" fill="#05AEEE">
            <g id="footer" transform="translate(0.000000, 540.000000)">
                <g id="Group-7" transform="translate(637.000000, 41.000000)">
                    <path d="M72.9151073,3.55123935 C71.5564808,4.15376702 70.0964534,4.56157539 68.5651514,4.74380327 C70.1287842,3.80621142 71.3316352,2.32340551 71.895219,0.554031547 C70.433722,1.42181836 68.8135103,2.05300284 67.087489,2.39247575 C65.7046145,0.919222102 63.7361125,0 61.5581954,0 C57.3757715,0 53.9839816,3.39178995 53.9839816,7.57421377 C53.9839816,8.16865876 54.0515822,8.7454688 54.1794357,9.29950034 C47.8859606,8.98501029 42.3059665,5.97016753 38.5695601,1.38581366 C37.9185363,2.50636818 37.5445283,3.80621142 37.5445283,5.19422945 C37.5445283,7.82110316 38.881111,10.1408347 40.9128049,11.4979916 C39.6717449,11.4597825 38.5041638,11.1166356 37.4828059,10.5501127 L37.4828059,10.6456353 C37.4828059,14.3144411 40.094249,17.3763104 43.5573136,18.0721564 C42.92319,18.244832 42.2523268,18.3388851 41.5623592,18.3388851 C41.0751935,18.3388851 40.5990497,18.2903889 40.1376016,18.2014794 C41.1009111,21.2111786 43.8975213,23.3993828 47.2114235,23.4625747 C44.6212893,25.4935338 41.3558832,26.7044675 37.8046439,26.7044675 C37.1947683,26.7044675 36.5922406,26.6669932 36,26.5986578 C39.3513765,28.7457137 43.3324679,30 47.6111492,30 C61.5412952,30 69.1588616,18.461595 69.1588616,8.45155286 C69.1588616,8.12457137 69.1500441,7.79758989 69.1375527,7.47060841 C70.6144803,6.40442833 71.8974233,5.07078476 72.9151073,3.55123935" id="Fill-2"></path>
                </g>
            </g>
        </g>
    </g>
</svg>
