<svg xmlns="http://www.w3.org/2000/svg" width="64" height="64" viewBox="0 0 64 64" preserveAspectRatio="xMinYMin meet">
  <path d="M61.826 55.683l-16.642-16.642c6.514-9.426 5.598-22.469-2.786-30.848-4.57-4.57-10.646-7.087-17.11-7.087-6.464 0-12.54 2.516-17.11 7.085-9.434 9.434-9.434 24.782 0 34.217 4.571 4.569 10.646 7.087 17.11 7.087 4.986 0 9.736-1.514 13.75-4.298l16.636 16.634c.851.851 1.965 1.274 3.077 1.274s2.226-.425 3.075-1.274c1.7-1.695 1.7-4.451 0-6.148zm-48.375-18.548c-6.526-6.527-6.526-17.144 0-23.67 3.163-3.16 7.365-4.901 11.837-4.901 4.469 0 8.674 1.742 11.836 4.903 6.525 6.525 6.525 17.141 0 23.668-3.162 3.161-7.366 4.901-11.836 4.901-4.473 0-8.675-1.74-11.837-4.901z" fill="#888"></path>
</svg>
