<?xml version="1.0" encoding="UTF-8"?>
<svg width="40px" height="40px" viewBox="0 0 40 40" version="1.1" xmlns="http://www.w3.org/2000/svg" xmlns:xlink="http://www.w3.org/1999/xlink">
    <!-- Generator: Sketch 51.2 (57519) - http://www.bohemiancoding.com/sketch -->
    <title>Left Arrow</title>
    <desc>Created with Sketch.</desc>
    <defs>
        <polygon id="path-1" points="0.000102222222 5.50470428e-05 30.6666667 5.50470428e-05 30.6666667 26.57742 0.000102222222 26.57742"></polygon>
    </defs>
    <g id="Left-Arrow" stroke="none" stroke-width="1" fill="none" fill-rule="evenodd">
        <g id="ARROW" transform="translate(20.000000, 20.000000) rotate(-180.000000) translate(-20.000000, -20.000000) translate(0.000000, 0.000000)">
            <rect id="Rectangle-6" fill="#FFFFFF" x="0" y="0" width="40" height="40"></rect>
            <g id="right-arrow" transform="translate(4.666667, 6.666667)">
                <mask id="mask-2" fill="white">
                    <use xlink:href="#path-1"></use>
                </mask>
                <g id="Clip-2"></g>
                <path d="M30.5671022,13.5752644 C30.5885689,13.5440867 30.6131022,13.5164867 30.6279244,13.4807089 C30.6524578,13.4203978 30.6652356,13.35702 30.6657467,13.29262 C30.6657467,13.2910867 30.6667689,13.2895533 30.6667689,13.28802 C30.6667689,13.2864867 30.6657467,13.2849533 30.6652356,13.2829089 C30.6647244,13.21902 30.6524578,13.1556422 30.6279244,13.0958422 C30.6131022,13.0600644 30.5885689,13.0319533 30.5671022,13.0007756 C30.5517689,12.9787978 30.54308,12.9537533 30.5241689,12.9343311 L30.5170133,12.9266644 C30.5170133,12.9266644 30.5170133,12.9266644 30.5165022,12.9261533 L18.2575022,0.157064444 C18.0622578,-0.0468688889 17.7382133,-0.0524911111 17.5347911,0.142242222 C17.3313689,0.337997778 17.3247244,0.66102 17.52048,0.864953333 L28.9565911,12.7769089 L0.511213333,12.7769089 C0.22908,12.7769089 0.000102222222,13.0058867 0.000102222222,13.28802 C0.000102222222,13.5706644 0.22908,13.7991311 0.511213333,13.7991311 L28.9565911,13.7991311 L17.52048,25.71262 C17.3247244,25.9165533 17.3313689,26.2395756 17.5347911,26.4353311 C17.6339467,26.5303978 17.7617244,26.57742 17.8889911,26.57742 C18.0234133,26.57742 18.1573244,26.5252867 18.2575022,26.4205089 L30.5165022,13.6498867 L30.5170133,13.6498867 L30.5241689,13.64222 C30.54308,13.6222867 30.5517689,13.5972422 30.5671022,13.5752644" id="Fill-1" fill="#1F055E" mask="url(#mask-2)"></path>
            </g>
        </g>
    </g>
</svg>