<?xml version="1.0" encoding="UTF-8"?>
<svg width="40px" height="40px" viewBox="0 0 40 40" version="1.1" xmlns="http://www.w3.org/2000/svg" xmlns:xlink="http://www.w3.org/1999/xlink">
    <!-- Generator: Sketch 51.2 (57519) - http://www.bohemiancoding.com/sketch -->
    <title>GALLERY</title>
    <desc>Created with Sketch.</desc>
    <defs>
        <polygon id="path-1" points="0 0.0528587052 25.9722232 0.0528587052 25.9722232 21.6666667 0 21.6666667"></polygon>
    </defs>
    <g id="GALLERY" stroke="none" stroke-width="1" fill="none" fill-rule="evenodd">
        <g>
            <rect id="Rectangle" fill="#3C00B7" x="0" y="0" width="40" height="40"></rect>
            <g id="Group-16" transform="translate(7.000000, 9.000000)">
                <g id="Group-3">
                    <mask id="mask-2" fill="white">
                        <use xlink:href="#path-1"></use>
                    </mask>
                    <g id="Clip-2"></g>
                    <path d="M17.2677075,16.6333749 C16.0818351,17.7722682 14.6546779,18.3416295 12.9861768,18.3416295 C11.3176164,18.3416295 9.8908738,17.7722682 8.70476446,16.6333749 C7.51889203,15.4948797 6.92586697,14.1243635 6.92586697,12.5227362 C6.92586697,10.9203696 7.5190697,9.550479 8.70476446,8.41152887 C9.8906369,7.27280621 11.3179125,6.70355862 12.9861768,6.70355862 C14.6546779,6.70355862 16.0818351,7.27303368 17.2677075,8.41152887 C18.45358,9.55019466 19.0465458,10.9203696 19.0465458,12.5227362 C19.0465458,14.1243635 18.45358,15.494766 17.2677075,16.6333749 M24.9580219,4.35235564 C24.281785,3.70303806 23.4657759,3.3783224 22.5096392,3.3783224 L19.479662,3.3783224 L18.789744,1.61189195 C18.6183453,1.18760061 18.3051016,0.821712598 17.849539,0.514227909 C17.3940355,0.206856955 16.9273385,0.0528587052 16.4494478,0.0528587052 L9.52326105,0.0528587052 C9.04531116,0.0528587052 8.57843645,0.206856955 8.12311071,0.514227909 C7.66760729,0.821712598 7.35436355,1.18760061 7.18290569,1.61189195 L6.49304692,3.3783224 L3.46312893,3.3783224 C2.50693303,3.3783224 1.69092392,3.70303806 1.01445011,4.35235564 C0.338213212,5.0019007 -2.3690205e-05,5.78542651 -2.3690205e-05,6.70327428 L-2.3690205e-05,18.341402 C-2.3690205e-05,19.2593635 0.338213212,20.0430031 1.01445011,20.6923206 C1.69092392,21.3419226 2.50693303,21.6666951 3.46312893,21.6666951 L22.5094023,21.6666951 C23.4653613,21.6666951 24.2813112,21.3419226 24.957785,20.6923206 C25.6340219,20.0430031 25.9722588,19.2593635 25.9722588,18.341402 L25.9722588,6.70327428 C25.9724957,5.78542651 25.6342588,5.0019007 24.9580219,4.35235564" id="Fill-1" fill="#FFFFFF" mask="url(#mask-2)"></path>
                </g>
                <path d="M13.1629558,8.97525946 C12.0751181,8.97525946 11.1450442,9.34915571 10.372614,10.0970063 C9.60018387,10.8449151 9.21393877,11.7453349 9.21393877,12.7987889 C9.21393877,13.8517198 9.60018387,14.7523721 10.372614,15.5002808 C11.1450442,16.2479571 12.0751181,16.6218533 13.1629558,16.6218533 C14.2507934,16.6218533 15.1808073,16.2479571 15.9532375,15.5002808 C16.7256676,14.7523721 17.1121529,13.8517198 17.1121529,12.7987889 C17.1121529,11.7453349 16.7256676,10.8451476 15.9532375,10.0970063 C15.1810474,9.34915571 14.2507934,8.97525946 13.1629558,8.97525946" id="Fill-4" fill="#FFFFFF"></path>
            </g>
        </g>
    </g>
</svg>