<?xml version="1.0" encoding="utf-8"?>
<!-- Generator: Adobe Illustrator 22.1.0, SVG Export Plug-In . SVG Version: 6.00 Build 0)  -->
<svg class="more-content-feed-gallery" version="1.1" id="Layer_1" xmlns="http://www.w3.org/2000/svg" xmlns:xlink="http://www.w3.org/1999/xlink" x="0px" y="0px"
	 viewBox="0 0 40 40" style="enable-background:new 0 0 40 40;" xml:space="preserve">
<style type="text/css">
	.more-content-feed-gallery .st0{fill:#FFFFFF;}
</style>
<g id="Group-16">
	<g id="Group-3">
		<g>
			<path id="Fill-1" class="st0" d="M24.3,25.6c-1.1,1.1-2.7,1.8-4.3,1.7c-1.6,0.1-3.2-0.6-4.3-1.7c-1.2-1-1.8-2.5-1.8-4.1
				c0-1.6,0.6-3.1,1.8-4.1c2.4-2.3,6.2-2.3,8.6,0c1.1,1.1,1.7,2.6,1.7,4.1C26.1,23,25.4,24.5,24.3,25.6 M32,13.4
				c-0.7-0.7-1.6-1-2.5-1h-3l-0.7-1.8c-0.2-0.5-0.6-0.8-1-1.1c-0.4-0.3-0.9-0.4-1.4-0.4h-6.9c-0.5,0-1,0.1-1.4,0.4
				c-0.4,0.3-0.7,0.7-0.9,1.1l-0.7,1.8h-3c-0.9,0-1.8,0.3-2.5,1c-0.7,0.6-1,1.4-1,2.3v11.6c0,0.9,0.3,1.8,1,2.4c0.7,0.6,1.6,1,2.5,1
				h19c0.9,0,1.8-0.4,2.5-1c0.6-0.6,1-1.5,1-2.4V15.7C33,14.8,32.6,14,32,13.4"/>
		</g>
	</g>
	<path id="Fill-4" class="st0" d="M20.2,18c-1-0.1-2.1,0.3-2.8,1.1c-1.5,1.3-1.6,3.6-0.3,5.1c0.1,0.1,0.2,0.2,0.3,0.3
		c0.7,0.7,1.8,1.1,2.8,1.1c1,0,2-0.4,2.8-1.1c1.5-1.5,1.5-3.9,0-5.4C22.3,18.4,21.3,18,20.2,18"/>
</g>
</svg>
