<?xml version="1.0" encoding="UTF-8"?>
<svg width="40px" height="40px" viewBox="0 0 40 40" version="1.1" xmlns="http://www.w3.org/2000/svg" xmlns:xlink="http://www.w3.org/1999/xlink">
    <!-- Generator: Sketch 51.2 (57519) - http://www.bohemiancoding.com/sketch -->
    <title>LISTEN</title>
    <desc>Created with Sketch.</desc>
    <defs>
        <polygon id="path-1" points="-0.000236083333 0.0619010498 22.6637639 0.0619010498 22.6637639 21.2474999 -0.000236083333 21.2474999"></polygon>
    </defs>
    <g id="LISTEN" stroke="none" stroke-width="1" fill="none" fill-rule="evenodd">
        <g>
            <rect id="Rectangle" fill="#3C00B7" x="0" y="0" width="40" height="40"></rect>
            <g id="Group" transform="translate(6.000000, 9.000000)">
                <path d="M26.6084803,12.4718103 C26.4625808,12.4165668 26.3006276,12.4382865 26.1736148,12.5261095 C26.0461298,12.6148768 25.9705831,12.7603041 25.9710553,12.9151748 L25.9819151,17.1783676 C25.9823873,17.3327661 26.0584061,17.4777213 26.1858911,17.5655443 C26.2656873,17.6207878 26.3596484,17.6491178 26.4540818,17.6491178 C26.5102696,17.6491178 26.5669296,17.6387301 26.6207566,17.618427 C27.4007759,17.323795 28.3299999,16.6391533 28.3299999,15.0474795 C28.3299999,13.4496675 27.3936934,12.7650258 26.6084803,12.4718103" id="Fill-1" fill="#FFFFFF"></path>
                <path d="M2.15657403,12.5262511 C2.02956119,12.4379559 1.86666369,12.4167084 1.72170853,12.4719519 C0.936495364,12.7651674 0.000188866666,13.4498091 0.000188866666,15.0476211 C0.000188866666,16.6392949 0.929412864,17.3239366 1.70896003,17.6185686 C1.7632592,17.6388718 1.8199192,17.6492594 1.87610703,17.6492594 C1.97054036,17.6492594 2.06402936,17.6209294 2.14382553,17.5656859 C2.27131053,17.4773908 2.34780153,17.3329078 2.34827369,17.1785093 L2.35913353,12.9153164 C2.35960569,12.7604458 2.28405903,12.6145463 2.15657403,12.5262511" id="Fill-3" fill="#FFFFFF"></path>
                <g id="Group-7" transform="translate(2.833000, 0.410360)">
                    <mask id="mask-2" fill="white">
                        <use xlink:href="#path-1"></use>
                    </mask>
                    <g id="Clip-6"></g>
                    <path d="M20.1159525,8.0443507 C19.8756197,3.53374254 16.1100905,0.0619010498 11.3317639,0.0619010498 C6.56004757,0.0619010498 2.79829574,3.52524354 2.54899174,8.02688053 L2.36059724,8.02688053 C0.738704748,8.02688053 -0.000236083333,9.69740619 -0.000236083333,11.2498902 L-0.000236083333,18.394244 C-0.000236083333,20.2876323 0.808113248,21.2475472 2.40167574,21.2475472 L4.24926391,21.2475472 C4.51037207,21.2475472 4.72143057,21.0364887 4.72143057,20.7753805 L4.72143057,8.49904719 C4.72143057,8.23793903 4.51037207,8.02688053 4.24926391,8.02688053 L3.49238074,8.02688053 C3.73318574,3.99363287 7.01757706,1.00623438 11.3317639,1.00623438 C15.6464229,1.00623438 18.9308142,3.99363287 19.1716192,8.02688053 L18.4142639,8.02688053 C18.1536279,8.02688053 17.9420972,8.23793903 17.9420972,8.49904719 L17.9420972,20.7753805 C17.9420972,21.0364887 18.1536279,21.2475472 18.4142639,21.2475472 L20.2623242,21.2475472 C21.8558867,21.2475472 22.6637639,20.2876323 22.6637639,18.394244 L22.6637639,11.2498902 C22.6637639,9.78239619 21.6514385,8.21858019 20.1159525,8.0443507" id="Fill-5" fill="#FFFFFF" mask="url(#mask-2)"></path>
                </g>
            </g>
        </g>
    </g>
</svg>