<?xml version="1.0" encoding="UTF-8"?>
<svg width="40px" height="40px" viewBox="0 0 40 40" version="1.1" xmlns="http://www.w3.org/2000/svg" xmlns:xlink="http://www.w3.org/1999/xlink">
    <!-- Generator: Sketch 51.2 (57519) - http://www.bohemiancoding.com/sketch -->
    <title>WATCH</title>
    <desc>Created with Sketch.</desc>
    <defs>
        <polygon id="path-1" points="0 0.0278696078 18.945178 0.0278696078 18.945178 13.9388598 0 13.9388598"></polygon>
        <polygon id="path-3" points="0.00583125 0.0347916318 5.968 0.0347916318 5.968 15.9999799 0.00583125 15.9999799"></polygon>
    </defs>
    <g id="WATCH" stroke="none" stroke-width="1" fill="none" fill-rule="evenodd">
        <g>
            <rect id="Rectangle" fill="#3C00B7" x="0" y="0" width="40" height="40"></rect>
            <g id="Group" transform="translate(7.000000, 8.000000)">
                <g id="Group-3" transform="translate(0.000000, 9.000000)">
                    <mask id="mask-2" fill="white">
                        <use xlink:href="#path-1"></use>
                    </mask>
                    <g id="Clip-2"></g>
                    <path d="M18.945178,13.0116343 C18.945178,13.5239382 18.3796136,13.9388598 17.6821746,13.9388598 L1.26299686,13.9388598 C0.565293031,13.9388598 -6.62020906e-06,13.5239382 -6.62020906e-06,13.0116343 L-6.62020906e-06,0.955438235 C-6.62020906e-06,0.443134314 0.565293031,0.0278696078 1.26299686,0.0278696078 L17.6821746,0.0278696078 C18.3796136,0.0278696078 18.945178,0.443408824 18.945178,0.955438235 L18.945178,13.0116343 Z" id="Fill-1" fill="#FFFFFF" mask="url(#mask-2)"></path>
                </g>
                <path d="M8,4.99996855 C8,6.65672862 6.65677744,8 5,8 C3.34297096,8 2,6.65672862 2,4.99996855 C2,3.34327138 3.34297096,2 5,2 C6.65677744,2 8,3.34327138 8,4.99996855" id="Fill-4" fill="#FFFFFF"></path>
                <path d="M17,3.99989936 C17,6.20917653 15.2092286,8 12.9998658,8 C10.7907714,8 9,6.20917653 9,3.99989936 C9,1.79082347 10.7907714,0 12.9998658,0 C15.2092286,0 17,1.79082347 17,3.99989936" id="Fill-6" fill="#FFFFFF"></path>
                <g id="Group-10" transform="translate(20.000000, 8.000000)">
                    <mask id="mask-4" fill="white">
                        <use xlink:href="#path-3"></use>
                    </mask>
                    <g id="Clip-9"></g>
                    <path d="M5.96801875,15.2015866 C5.96801875,15.2015866 5.86864375,15.9999799 5.17283125,15.9999799 C4.47726875,15.9999799 0.00583125,11.532164 0.00583125,10.9442477 L0.00583125,5.0904569 C0.00583125,4.50267448 4.37820625,0.0347916318 5.17283125,0.0347916318 C5.96801875,0.0347916318 5.96801875,0.833117992 5.96801875,0.833117992 L5.96801875,15.2015866 Z" id="Fill-8" fill="#FFFFFF" mask="url(#mask-4)"></path>
                </g>
            </g>
        </g>
    </g>
</svg>