<?xml version="1.0" encoding="UTF-8"?>
<svg class="events-lede__datetime" width="15px" height="15px" viewBox="0 0 15 15" version="1.1" xmlns="http://www.w3.org/2000/svg" xmlns:xlink="http://www.w3.org/1999/xlink">
	<g stroke="none" stroke-width="1" fill="none" fill-rule="evenodd">
		<g class="events-lede__datetime-fill" transform="translate(-90.000000, -932.000000)" fill="#747577">
			<g transform="translate(90.000000, 928.000000)">
				<g transform="translate(0.000000, 4.000000)">
					<path d="M7.5,0 C11.6421356,0 15,3.35786438 15,7.5 C15,11.6421356 11.6421356,15 7.5,15 C3.35786438,15 0,11.6421356 0,7.5 C0,3.35786438 3.35786438,0 7.5,0 Z M7.25,3.07403564 C6.87030423,3.07403564 6.5625,3.38183988 6.5625,3.76153564 L6.5625,7.53460693 C6.5625,7.7260387 6.64231554,7.90880202 6.78273673,8.03890971 L10.6577367,11.6293028 C10.9362555,11.8873652 11.3712404,11.870782 11.6293028,11.5922633 C11.8873652,11.3137445 11.870782,10.8787596 11.5922633,10.6206972 L7.9375,7.23436517 L7.9375,3.76153564 C7.9375,3.38183988 7.62969577,3.07403564 7.25,3.07403564 Z"></path>
				</g>
			</g>
		</g>
	</g>
</svg>
