<?xml version="1.0" encoding="UTF-8"?>
<svg class="events-lede__location" width="12px" height="18px" viewBox="0 0 12 18" version="1.1" xmlns="http://www.w3.org/2000/svg" xmlns:xlink="http://www.w3.org/1999/xlink">
	<g stroke="none" stroke-width="1" fill="none" fill-rule="evenodd">
		<g class="events-lede__location-fill" transform="translate(-91.000000, -959.000000)" fill="#747577">
			<g transform="translate(91.000000, 956.000000)">
				<path d="M6,11.7692308 C4.58285714,11.7692308 3.42857143,10.5880154 3.42857143,9.13846154 C3.42857143,7.68832308 4.58285714,6.50769231 6,6.50769231 C7.41714286,6.50769231 8.57142857,7.68832308 8.57142857,9.13846154 C8.57142857,10.5880154 7.41714286,11.7692308 6,11.7692308 Z M6,3 C2.69142857,3 0,5.75353846 0,9.13846154 C0,12.4269231 5.53428571,20.0938615 5.77142857,20.4186154 C5.82571429,20.4946154 5.90857143,20.5384615 6,20.5384615 C6.09142857,20.5384615 6.17428571,20.4946154 6.22857143,20.4186154 C6.46571429,20.0938615 12,12.4269231 12,9.13846154 C12,5.75353846 9.30857143,3 6,3 L6,3 Z"></path>
			</g>
		</g>
	</g>
</svg>
