<?xml version="1.0" encoding="UTF-8"?>
<svg width="36px" height="32px" viewBox="0 0 36 32" version="1.1" xmlns="http://www.w3.org/2000/svg" xmlns:xlink="http://www.w3.org/1999/xlink">
    <!-- Generator: sketchtool 61.2 (101010) - https://sketch.com -->
    <title>A381772A-C325-4972-9D9C-5F81C90582B8</title>
    <desc>Created with sketchtool.</desc>
    <g id="Page-1" stroke="none" stroke-width="1" fill="none" fill-rule="evenodd">
        <g id="success-icon-group" transform="translate(-462.000000, -863.000000)">
            <g id="Group-31" transform="translate(140.000000, 863.000000)">
                <g id="Group" transform="translate(322.000000, 0.000000)">
                    <path d="M30.9665793,20.2402999 L26.0161201,27.1056477 L22.9593431,24.1774627 C22.7080211,23.9416763 22.3398051,23.9759358 22.1352407,24.2641192 C21.9306763,24.5462568 21.9598998,24.9694631 22.2112218,25.2119671 L26.1680823,29 L31.8666628,21.1001478 C32.0712272,20.8112926 32.036159,20.3880863 31.7906817,20.1529716 C31.5393597,19.9185287 31.1711437,19.9581623 30.9665793,20.2402999" id="Fill-2349"></path>
                    <path d="M16.5148195,12.5 L2.46153846,1.03071581 C2.5264906,1.01842949 2.585538,1 2.65639488,1 L29.8181986,1 C29.8949602,1 29.9599124,1.01842949 30.0307692,1.03747329 L16.5148195,12.5 Z M30.8148148,3.05555556 L30.8148148,9.77838889 C30.8148148,10.1138889 31.0814815,10.3888889 31.4074074,10.3888889 C31.7333333,10.3888889 32,10.1138889 32,9.77838889 L32,3.05555556 C32,1.22833333 31.0459259,0 29.6296296,0 L2.37037037,0 C0.954074074,0 0,1.22833333 0,3.05555556 L0,18.9450556 C0,20.7716667 0.954074074,22 2.37037037,22 L14.8148148,22 C15.1407407,22 15.4074074,21.725 15.4074074,21.3888889 C15.4074074,21.0527778 15.1407407,20.7783889 14.8148148,20.7783889 L2.37037037,20.7783889 C1.26814815,20.7783889 1.18518519,19.3722222 1.18518519,18.9450556 L1.18518519,3.05555556 C1.18518519,2.86611111 1.20888889,2.48172222 1.32148148,2.11444444 L15.917037,13.9211111 C16.0237037,14.0133889 16.1540741,14.0555556 16.2844444,14.0555556 C16.4148148,14.0555556 16.5511111,14.0066667 16.6577778,13.9156111 L30.6785185,2.12727778 C30.7911111,2.49333333 30.8148148,2.86611111 30.8148148,3.05555556 L30.8148148,3.05555556 Z" id="Fill-2350"></path>
                    <path d="M26.7567568,30.5 C22.2251975,30.5 18.5405405,27.0244231 18.5405405,22.7505962 C18.5405405,18.4755769 22.2251975,15 26.7567568,15 C31.288316,15 34.972973,18.4755769 34.972973,22.7505962 C34.972973,27.0244231 31.288316,30.5 26.7567568,30.5 Z M26.5,14 C21.2623333,14 17,18.038 17,23 C17,27.962 21.2623333,32 26.5,32 C31.7376667,32 36,27.962 36,23 C36,18.038 31.7376667,14 26.5,14 L26.5,14 Z" id="Fill-2351"></path>
                </g>
            </g>
        </g>
    </g>
</svg>