<?xml version="1.0" encoding="UTF-8"?>
<svg width="30px" height="30px" viewBox="0 0 30 30" version="1.1" xmlns="http://www.w3.org/2000/svg" xmlns:xlink="http://www.w3.org/1999/xlink">
    <!-- Generator: Sketch 50.2 (55047) - http://www.bohemiancoding.com/sketch -->
    <title>Group</title>
    <desc>Created with Sketch.</desc>
    <defs>
        <polygon id="path-1" points="0 0 30 0 30 30 0 30"></polygon>
    </defs>
    <g id="Nav/Footer" stroke="none" stroke-width="1" fill="none" fill-rule="evenodd">
        <g id="1440-Footer" transform="translate(-774.000000, -581.000000)">
            <g id="footer" transform="translate(0.000000, 540.000000)">
                <g id="Group-7" transform="translate(637.000000, 41.000000)">
                    <g id="Group" transform="translate(137.000000, 0.000000)">
                        <mask id="mask-2" fill="white">
                            <use xlink:href="#path-1"></use>
                        </mask>
                        <g id="Clip-2"></g>
                        <path d="M14.9999702,0 C10.9262446,0 10.4153691,0.0172673522 8.81551918,0.0902665722 C7.21888453,0.163087164 6.12854055,0.416679071 5.17437049,0.787510346 C4.18804742,1.17078602 3.35147398,1.68368592 2.51757995,2.51757995 C1.68368592,3.35153352 1.17078602,4.18804742 0.787450803,5.17443003 C0.416619529,6.12854055 0.163087164,7.21894407 0.0902070296,8.81551918 C0.0172078096,10.4154287 0,10.926185 0,14.9999702 C0,19.0737554 0.0172078096,19.5845713 0.0902070296,21.1844808 C0.163087164,22.7810559 0.416619529,23.8714594 0.787450803,24.82557 C1.17078602,25.811893 1.68368592,26.6484665 2.51757995,27.48242 C3.35147398,28.3163141 4.18804742,28.8291544 5.17437049,29.2125492 C6.12854055,29.5833209 7.21888453,29.8369128 8.81551918,29.909793 C10.4153691,29.9827326 10.9262446,30 14.9999702,30 C19.0737554,30 19.5845118,29.9827326 21.1844213,29.909793 C22.7810559,29.8369128 23.8713999,29.5833209 24.82557,29.2125492 C25.8119526,28.8291544 26.6484665,28.3163141 27.4823605,27.48242 C28.3163141,26.6484665 28.8291544,25.8119526 29.2124897,24.82557 C29.5833209,23.8714594 29.8369128,22.7810559 29.9096739,21.1844808 C29.9827326,19.5845713 30,19.0737554 30,14.9999702 C30,10.9262446 29.9827326,10.4154287 29.9096739,8.81551918 C29.8369128,7.21894407 29.5833209,6.12854055 29.2124897,5.17443003 C28.8291544,4.18804742 28.3163141,3.35153352 27.4823605,2.51757995 C26.6484665,1.68368592 25.8119526,1.17078602 24.82557,0.787510346 C23.8713999,0.416679071 22.7810559,0.163087164 21.1844213,0.0902665722 C19.5845118,0.0172673522 19.0737554,0 14.9999702,0 M14.9999702,2.70269787 C19.0051623,2.70269787 19.4795382,2.71794078 21.0612276,2.7901064 C22.5237128,2.85685365 23.3179515,3.10121646 23.8465111,3.3066384 C24.5466725,3.57874806 25.0464135,3.90379108 25.5712814,4.42865904 C26.0961494,4.95358655 26.4211924,5.453268 26.6933616,6.15342936 C26.898724,6.68198896 27.1430868,7.47628716 27.2098341,8.93871281 C27.2819401,10.5204023 27.2972426,10.9948377 27.2972426,14.9999702 C27.2972426,19.0051623 27.2819401,19.4795977 27.2098341,21.0612276 C27.1430868,22.5237724 26.898724,23.318011 26.6933616,23.8465706 C26.4211924,24.5466725 26.0961494,25.0464135 25.5712814,25.5712814 C25.0464135,26.0962089 24.5466725,26.4212519 23.8465111,26.6933616 C23.3179515,26.898724 22.5237128,27.1431463 21.0612276,27.2098341 C19.4797764,27.2819997 19.0054601,27.2973021 14.9999702,27.2973021 C10.9944804,27.2973021 10.5201641,27.2819997 8.93871281,27.2098341 C7.47622762,27.1431463 6.68192942,26.898724 6.15336981,26.6933616 C5.453268,26.4212519 4.95352701,26.0962089 4.42871858,25.5712814 C3.90379108,25.0464135 3.57868851,24.5466725 3.30657886,23.8465706 C3.10121646,23.318011 2.85685365,22.5237724 2.7901064,21.0612872 C2.71794078,19.4795977 2.70269787,19.0051623 2.70269787,14.9999702 C2.70269787,10.9948377 2.71794078,10.5204023 2.7901064,8.93871281 C2.85685365,7.47628716 3.10121646,6.68198896 3.30657886,6.15342936 C3.57868851,5.453268 3.90379108,4.95358655 4.42865904,4.42871858 C4.95352701,3.90379108 5.453268,3.57874806 6.15336981,3.3066384 C6.68192942,3.10121646 7.47622762,2.85685365 8.93865327,2.7901064 C10.5204023,2.71794078 10.9947781,2.70269787 14.9999702,2.70269787" id="Fill-1" fill="#FFFFFF" mask="url(#mask-2)"></path>
                        <path d="M15.1190775,20.1420249 C12.3449807,20.1420249 10.0960704,17.8931145 10.0960704,15.1190177 C10.0960704,12.3449209 12.3449807,10.0960704 15.1190775,10.0960704 C17.8931743,10.0960704 20.1420847,12.3449209 20.1420847,15.1190177 C20.1420847,17.8931145 17.8931743,20.1420249 15.1190775,20.1420249 M15.1190775,7.38095238 C10.845448,7.38095238 7.38095238,10.8453881 7.38095238,15.1190177 C7.38095238,19.3927071 10.845448,22.8571429 15.1190775,22.8571429 C19.3927071,22.8571429 22.8571429,19.3927071 22.8571429,15.1190177 C22.8571429,10.8453881 19.3927071,7.38095238 15.1190775,7.38095238" id="Fill-4" fill="#FFFFFF" mask="url(#mask-2)"></path>
                        <path d="M24.7619048,7.02383906 C24.7619048,8.01007103 23.962452,8.80952381 22.97622,8.80952381 C21.989988,8.80952381 21.1904762,8.01007103 21.1904762,7.02383906 C21.1904762,6.03760708 21.989988,5.23809524 22.97622,5.23809524 C23.962452,5.23809524 24.7619048,6.03760708 24.7619048,7.02383906" id="Fill-6" fill="#FFFFFF" mask="url(#mask-2)"></path>
                    </g>
                </g>
            </g>
        </g>
    </g>
</svg>
