<?xml version="1.0" encoding="UTF-8"?>
<svg width="25px" height="30px" viewBox="0 0 25 30" version="1.1" xmlns="http://www.w3.org/2000/svg" xmlns:xlink="http://www.w3.org/1999/xlink">
    <!-- Generator: Sketch 50.2 (55047) - http://www.bohemiancoding.com/sketch -->
    <title>Group 8</title>
    <desc>Created with Sketch.</desc>
    <defs></defs>
    <g id="Nav/Footer" stroke="none" stroke-width="1" fill="none" fill-rule="evenodd">
        <g id="1440-Footer" transform="translate(-729.000000, -581.000000)">
            <g id="footer" transform="translate(0.000000, 540.000000)">
                <g id="Group-7" transform="translate(637.000000, 41.000000)">
                    <g id="Group-8" transform="translate(92.000000, 0.000000)">
                        <path d="M20.0782131,11.1486393 L20.0782131,2.84109836 L18.5723115,2.84109836 L18.5723115,9.19077049 C18.2378852,9.66240984 17.9221475,9.89552459 17.6211639,9.89552459 C17.418541,9.89552459 17.3014918,9.7765082 17.268541,9.54290164 C17.2498525,9.49421311 17.2498525,9.31027869 17.2498525,8.95667213 L17.2498525,2.84109836 L15.7493607,2.84109836 L15.7493607,9.41011475 C15.7493607,9.99634426 15.8000164,10.3942131 15.8831311,10.6455246 C16.0326393,11.0665082 16.3675574,11.2637213 16.8524754,11.2637213 C17.4013279,11.2637213 17.9728033,10.9297869 18.5723115,10.2422459 L18.5723115,11.1486393 L20.0782131,11.1486393 Z M13.0046066,8.7422459 C13.0046066,9.51093443 12.7724754,9.89552459 12.2870656,9.89552459 C11.8006721,9.89552459 11.5680492,9.51093443 11.5680492,8.7422459 L11.5680492,5.247 C11.5680492,4.47831148 11.8006721,4.09568852 12.2870656,4.09568852 C12.7724754,4.09568852 13.0046066,4.47831148 13.0046066,5.247 L13.0046066,8.7422459 Z M14.511,8.45896721 L14.511,5.54847541 C14.511,4.6612623 14.358541,4.01257377 14.0432951,3.59159016 C13.6257541,3.02454098 13.041,2.74027869 12.2870656,2.74027869 C11.5370656,2.74027869 10.9498525,3.02454098 10.5337869,3.59159016 C10.2131311,4.01257377 10.0626393,4.6612623 10.0626393,5.54847541 L10.0626393,8.45896721 C10.0626393,9.3422459 10.2131311,9.99634426 10.5337869,10.4133934 C10.9498525,10.979459 11.5370656,11.2637213 12.2870656,11.2637213 C13.041,11.2637213 13.6257541,10.979459 14.0432951,10.4133934 C14.358541,9.99634426 14.511,9.3422459 14.511,8.45896721 Z M10.0488689,0.00093442623 L8.361,0.00093442623 L7.22198361,4.37847541 L6.03772131,0.00093442623 L4.28001639,0.00093442623 C4.63165574,1.03322951 4.99903279,2.07240984 5.35067213,3.10618033 C5.8857541,4.6612623 6.22018033,5.8327377 6.37067213,6.63339344 L6.37067213,11.1486393 L8.04083607,11.1486393 L8.04083607,6.63339344 L10.0488689,0.00093442623 Z" id="Fill-2" fill="#FEFEFE"></path>
                        <path d="M24.9544426,21.2315902 C24.9544426,23.1530656 24.9529672,25.192082 24.5221475,27.0584754 C24.2211639,28.3686393 23.1495246,29.3355246 21.858541,29.4801148 C18.8014918,29.8214262 15.7070656,29.8233934 12.628377,29.8214262 C9.54821311,29.8233934 6.45427869,29.8214262 3.39772131,29.4801148 C2.1067377,29.3355246 1.03460656,28.3686393 0.734114754,27.0584754 C0.304770492,25.192082 0.304770492,23.1530656 0.304770492,21.2315902 C0.304770492,19.3076557 0.309196721,17.2725738 0.739032787,15.4037213 C1.04001639,14.0940492 2.11214754,13.1271639 3.40313115,12.9830656 C6.45968852,12.6407705 9.55362295,12.6402787 12.6332951,12.6407705 C15.7124754,12.6402787 18.8069016,12.6407705 21.863459,12.9830656 C23.1544426,13.1271639 24.2265738,14.0940492 24.5270656,15.4037213 C24.9564098,17.2725738 24.9544426,19.3076557 24.9544426,21.2315902" id="Fill-4" fill="#FEFEFE"></path>
                        <path d="M23.1183443,23.9338525 L23.1183443,23.7169672 L21.5971967,23.7169672 C21.5971967,24.315 21.5794918,24.6440164 21.5657213,24.7251639 C21.4796557,25.1230328 21.2652295,25.3231967 20.8993279,25.3231967 C20.3883443,25.3231967 20.139,24.9440164 20.139,24.1822131 L20.139,22.7254918 L23.1183443,22.7254918 L23.1183443,21.0233607 C23.1183443,20.1435246 22.9683443,19.5012295 22.656541,19.0856557 C22.239,18.5220492 21.646377,18.2427049 20.8993279,18.2427049 C20.139,18.2427049 19.5444098,18.5220492 19.1155574,19.0856557 C18.7983443,19.5012295 18.6552295,20.1435246 18.6552295,21.0233607 L18.6552295,23.9028689 C18.6552295,24.7748361 18.8170328,25.425 19.1332623,25.8351639 C19.5630984,26.3968033 20.1562131,26.6781148 20.9371967,26.6781148 C21.7147377,26.6781148 22.3255574,26.3830328 22.7386721,25.7864754 C22.9181803,25.5228689 23.0352295,25.2233607 23.0853934,24.8943443 C23.0991639,24.7438525 23.1183443,24.4128689 23.1183443,23.9338525 Z M21.6281803,21.4851639 L20.139,21.4851639 L20.139,20.7248361 C20.139,19.965 20.3883443,19.5838525 20.886541,19.5838525 C21.3783443,19.5838525 21.6281803,19.965 21.6281803,20.7248361 L21.6281803,21.4851639 Z M17.4950656,24.097623 L17.4950656,20.8231967 C17.4950656,20.0456557 17.4444098,19.5012295 17.3450656,19.1702459 C17.146377,18.5545082 16.7480164,18.2427049 16.1544098,18.2427049 C15.6075246,18.2427049 15.0970328,18.5431967 14.6150656,19.1338525 L14.6150656,15.5304098 L13.126377,15.5304098 L13.126377,26.5640164 L14.6150656,26.5640164 L14.6150656,25.7677869 C15.1132623,26.3830328 15.6242459,26.6781148 16.1544098,26.6781148 C16.7480164,26.6781148 17.146377,26.3658197 17.3450656,25.7540164 C17.4444098,25.4058197 17.4950656,24.8579508 17.4950656,24.097623 Z M16.006377,24.2151639 C16.006377,24.9577869 15.7875246,25.3231967 15.3581803,25.3231967 C15.1132623,25.3231967 14.8644098,25.2056557 14.6150656,24.9577869 L14.6150656,19.9458197 C14.8644098,19.7013934 15.1132623,19.5838525 15.3581803,19.5838525 C15.7875246,19.5838525 16.006377,19.965 16.006377,20.7061475 L16.006377,24.2151639 Z M10.3452295,26.5640164 L10.3452295,25.6679508 C9.75408197,26.3466393 9.19145902,26.6781148 8.64359016,26.6781148 C8.16309836,26.6781148 7.83211475,26.4833607 7.68408197,26.0658197 C7.60195082,25.8159836 7.55227869,25.425 7.55227869,24.8436885 L7.55227869,18.3430328 L9.04145902,18.3430328 L9.04145902,24.3956557 C9.04145902,24.7438525 9.04145902,24.9268033 9.05522951,24.975 C9.09162295,25.2056557 9.2042459,25.3231967 9.40342623,25.3231967 C9.70244262,25.3231967 10.0162131,25.0920492 10.3452295,24.6268033 L10.3452295,18.3430328 L11.8368689,18.3430328 L11.8368689,26.5640164 L10.3452295,26.5640164 Z M7.33588525,17.0845082 L7.33588525,15.5304098 L2.14145902,15.5304098 L2.14145902,17.0845082 L3.8942459,17.0845082 L3.8942459,26.5640164 L5.55063934,26.5640164 L5.55063934,17.0845082 L7.33588525,17.0845082 Z" id="Fill-6" fill="#1F055E"></path>
                    </g>
                </g>
            </g>
        </g>
    </g>
</svg>
