<?xml version="1.0" encoding="UTF-8"?>
<svg width="9px" height="10px" viewBox="0 0 9 10" version="1.1" xmlns="http://www.w3.org/2000/svg" xmlns:xlink="http://www.w3.org/1999/xlink">
    <!-- Generator: sketchtool 60.1 (101010) - https://sketch.com -->
    <title>26F0F017-9B56-4CC6-868B-01148FEDDD6A</title>
    <desc>Created with sketchtool.</desc>
    <defs>
        <path d="M7.93161616,0.306637929 C7.66079242,0.306637929 7.44099444,0.526435909 7.44099444,0.797258359 L7.44099444,1.87049068 L0.981240859,1.87049068 L0.981240859,0.797258359 C0.981240859,0.526435909 0.761442879,0.306637929 0.490620429,0.306637929 C0.21979798,0.306637929 0,0.526435909 0,0.797258359 L0,2.36111111 C0,2.6319336 0.21979798,2.85173158 0.490620429,2.85173158 L7.93161616,2.85173158 C8.2024399,2.85173158 8.42223788,2.6319336 8.42223788,2.36111111 L8.42223788,0.797258359 C8.42223788,0.526435909 8.2024399,0.306637929 7.93161616,0.306637929 L7.93161616,0.306637929 Z" id="path-1"></path>
        <path d="M2.89656217,7.42333333 C2.91937609,7.44614725 2.94464298,7.46675331 2.97187217,7.48466083 C2.98340169,7.49251088 2.99591258,7.49790753 3.00817833,7.50453109 C3.02412356,7.51311694 3.03933255,7.52268417 3.05601359,7.53004311 C3.07220437,7.53642154 3.08863985,7.54034614 3.10532088,7.5450074 C3.11930381,7.54917755 3.13304119,7.55457419 3.14751437,7.55776341 C3.17915927,7.56389629 3.2115404,7.56733063 3.24367598,7.56733063 C3.27581157,7.56733063 3.3081927,7.56389629 3.3398376,7.55776341 C3.35431078,7.55457419 3.36804816,7.54917755 3.38203109,7.5450074 C3.39871212,7.54034614 3.41514803,7.53642154 3.43133838,7.53004311 C3.44802071,7.52268417 3.46347525,7.51311694 3.47917449,7.50453109 C3.49143939,7.49790753 3.50419369,7.49251088 3.5154798,7.48466083 C3.54270985,7.46675331 3.56797803,7.44614725 3.59079066,7.42333333 L5.97569747,5.03842652 C6.16728232,4.84684167 6.16728232,4.53627828 5.97569747,4.34468914 C5.78410833,4.15310429 5.47354495,4.15310429 5.2819601,4.34468914 L3.7342947,5.89235197 L3.7342947,0.490621717 C3.7342947,0.21979798 3.51474571,0 3.24367598,0 C2.97285354,0 2.75305556,0.21979798 2.75305556,0.490621717 L2.75305556,5.89235197 L1.20539316,4.34468914 C1.01380573,4.15310429 0.703488333,4.15310429 0.511655783,4.34468914 C0.320068359,4.53627828 0.320068359,4.84684167 0.511655783,5.03842652 L2.89656217,7.42333333 Z" id="path-3"></path>
    </defs>
    <g id="breaks" stroke="none" stroke-width="1" fill="none" fill-rule="evenodd">
        <g id="1279-1024-Podcast-Page" transform="translate(-306.000000, -698.000000)">
            <g id="section-/-station-page-/-podcast_info" transform="translate(42.000000, 673.000000)">
                <g id="icon-/-ic_download" transform="translate(264.000000, 25.000000)">
                    <g id="Group" transform="translate(0.555556, 0.000000)" fill="#cccccc" class="svg-download-icon">
                        <g id="Group-3" transform="translate(0.000000, 6.439394)">
                            <mask id="mask-2" fill="white">
                                <use xlink:href="#path-1"></use>
                            </mask>
                            <g id="Clip-2"></g>
                            <polygon id="Fill-1" mask="url(#mask-2)" points="-2.14646465 4.99819619 10.5687025 4.99819619 10.5687025 -1.83982629 -2.14646465 -1.83982629"></polygon>
                        </g>
                        <g id="Group-6" transform="translate(0.858586, 0.000000)">
                            <mask id="mask-4" fill="white">
                                <use xlink:href="#path-3"></use>
                            </mask>
                            <g id="Clip-5"></g>
                            <polygon id="Fill-4" mask="url(#mask-4)" points="-1.77849922 9.71379511 8.26585205 9.71379511 8.26585205 -2.14646525 -1.77849922 -2.14646525"></polygon>
                        </g>
                    </g>
                </g>
            </g>
        </g>
    </g>
</svg>