<?xml version="1.0" encoding="UTF-8"?>
<svg width="10px" height="10px" viewBox="0 0 10 10" version="1.1" xmlns="http://www.w3.org/2000/svg" xmlns:xlink="http://www.w3.org/1999/xlink">
    <!-- Generator: sketchtool 60.1 (101010) - https://sketch.com -->
    <title>8EE48DA9-968C-4949-BB39-54C13F5E9E68</title>
    <desc>Created with sketchtool.</desc>
    <g id="breaks" stroke="none" stroke-width="1" fill="none" fill-rule="evenodd">
        <g id="1279-1024-Podcast-Page" transform="translate(-214.000000, -698.000000)" fill="#9E9E9E" stroke="#9E9E9E">
            <g id="section-/-station-page-/-podcast_info" transform="translate(42.000000, 673.000000)">
                <g id="icon-/-ic_time" transform="translate(172.000000, 25.000000)">
                    <g id="clock" transform="translate(0.555556, 0.555556)">
                        <path d="M8.5340886,2.71337059 C8.06544662,1.62017782 7.26907771,0.825129846 6.16736383,0.35499519 C5.6167175,0.120022322 5.03982571,0 4.43713871,0 C3.83455338,0 3.26191721,0.118888802 2.7118809,0.35499519 C1.61928831,0.823880068 0.819389978,1.61841941 0.349920116,2.71337059 C0.114669572,3.26193611 0,3.83664525 0,4.43956159 C0,5.04259419 0.114669572,5.62206992 0.349920116,6.1707517 C0.819389978,7.26570288 1.61938998,8.06500882 2.7118809,8.53400996 C3.26201888,8.77011635 3.83453885,8.88888889 4.43713871,8.88888889 C5.03973856,8.88888889 5.6167175,8.76886657 6.16727669,8.53400996 C7.26899056,8.06386077 8.06535948,7.26384275 8.53410312,6.1707517 C8.77006536,5.62031151 8.88888889,5.04259419 8.88888889,4.43956159 C8.88888889,3.83664525 8.77016703,3.26379625 8.5340886,2.71337059 Z M7.82460421,6.40416961 C7.47571532,7.00282799 6.99774873,7.4777583 6.39577342,7.82890243 C5.79744372,8.17798297 5.14185911,8.35402734 4.43724038,8.35402734 C3.90753813,8.35402734 3.4020915,8.25195242 2.92090051,8.04281799 C2.43972404,7.83378529 2.02427015,7.55897937 1.67673203,7.21135206 C1.3291939,6.86362302 1.05257807,6.4438864 0.84573711,5.96161727 C0.639506173,5.48110655 0.53956427,4.96967108 0.53956427,4.43957612 C0.53956427,3.7344686 0.712708787,3.08185176 1.05963689,2.48485007 C1.40779956,1.88566853 1.88586783,1.41022958 2.48358751,1.06010271 C3.08120552,0.70999038 3.7325345,0.534876083 4.43713871,0.534876083 C5.14185911,0.534876083 5.79732752,0.711022173 6.39567175,1.06010271 C6.99764706,1.41126138 7.47458243,1.88668579 7.82450254,2.48483554 C8.17442266,3.08288356 8.34933914,3.7344686 8.34933914,4.43956159 C8.34933914,5.14468365 8.17557008,5.80174736 7.82460421,6.40416961 Z" id="Shape" stroke-width="0.5" fill-rule="nonzero"></path>
                        <path d="M5.05739866,4.6908652 L5.05739866,1.96170659 C5.05739866,1.79839385 4.91090758,1.66666667 4.74275974,1.66666667 C4.58550513,1.66666667 4.44444444,1.79839385 4.44444444,1.96170659 L4.44444444,4.73300026 C4.44444444,4.73829076 4.45532145,4.75942128 4.45532145,4.77516682 C4.44444444,4.87001795 4.47164507,4.94904481 4.53668017,5.01232613 L6.1585538,6.58760438 C6.26708073,6.69302076 6.4677299,6.69302076 6.57617577,6.58760438 C6.70089663,6.46644245 6.69269429,6.2906435 6.57617577,6.17666154 L5.05739866,4.6908652 Z" id="Shape" stroke-width="0.5" fill-rule="nonzero"></path>
                    </g>
                </g>
            </g>
        </g>
    </g>
</svg>