<?xml version="1.0" encoding="utf-8"?>
<!-- Generator: Adobe Illustrator 23.0.2, SVG Export Plug-In . SVG Version: 6.00 Build 0)  -->
<svg version="1.1" id="Layer_1" xmlns="http://www.w3.org/2000/svg" xmlns:xlink="http://www.w3.org/1999/xlink" x="0px" y="0px"
	 viewBox="0 0 42 42" style="enable-background:new 0 0 42 42;" xml:space="preserve">
<style type="text/css">
	.st0{fill-rule:evenodd;clip-rule:evenodd;fill:#F4F4F4;stroke:#D2D2D2;}
	.st1{fill-rule:evenodd;clip-rule:evenodd;fill:#D8D8D8;}
</style>
<g id="Symbols">
	<g>
		<g id="Group">
			<rect id="Rectangle" x="0.5" y="0.5" class="st0" width="41" height="41"/>
			<g id="Group-12" transform="translate(11.000000, 10.000000)">
				<g id="Group-11" transform="translate(0.176768, 0.762664)">
					<path id="Fill-1" class="st1" d="M0.8,2.7v3.1c0.7,1.3,1.1,2.9,1.1,4.5c0,1.6-0.4,3.2-1.1,4.5v3.1c1.8-2,3-4.7,3-7.6
						C3.7,7.3,2.6,4.7,0.8,2.7"/>
					<path id="Fill-3" class="st1" d="M3.4,0.2l-2.6,0v0c2.9,2.4,4.7,6,4.7,10.1c0,4-1.8,7.7-4.7,10.1l0,0h2.6
						c2.4-2.6,3.9-6.2,3.9-10.1C7.3,6.4,5.8,2.8,3.4,0.2"/>
					<path id="Fill-6" class="st1" d="M19.9,7.5c0-4-3.3-7.3-7.3-7.3l0,0l-6.9,0c1,1.4,1.9,2.9,2.5,4.6h3.1c1.7,0,3.1,1.2,3.1,2.8
						s-1.4,2.8-3.1,2.8H9.1c0,1.2-0.1,2.3-0.4,3.4l4.5,6.7h6.6l-4.2-6.2C18.2,12.9,19.9,10.4,19.9,7.5"/>
					<path id="Fill-9" class="st1" d="M8.4,20.3v-5.1c-0.6,1.9-1.5,3.6-2.6,5.1H8.4z"/>
				</g>
			</g>
		</g>
	</g>
</g>
</svg>
