<?xml version="1.0" encoding="UTF-8"?>
<svg width="31px" height="27px" viewBox="0 0 31 27" version="1.1" xmlns="http://www.w3.org/2000/svg" xmlns:xlink="http://www.w3.org/1999/xlink">
    <!-- Generator: Sketch 58 (84663) - https://sketch.com -->
    <title>arrow-rigth</title>
    <desc>Created with Sketch.</desc>
    <g id="Page-1" stroke="none" stroke-width="1" fill="none" fill-rule="evenodd">
        <path d="M30.0246157,14.0734287 C30.0455588,14.0430114 30.0694938,14.0160846 30.0839545,13.9811794 C30.1078894,13.9223393 30.1203556,13.8605073 30.1208542,13.797678 C30.1208542,13.7961821 30.1218515,13.7946862 30.1218515,13.7931902 C30.1218515,13.7916943 30.1208542,13.7901984 30.1203556,13.7882038 C30.1198569,13.7258732 30.1078894,13.6640412 30.0839545,13.6056997 C30.0694938,13.5707946 30.0455588,13.5433691 30.0246157,13.5129518 C30.0096564,13.49151 30.0011794,13.4670764 29.9827295,13.4481279 L29.9757485,13.4406482 C29.9757485,13.4406482 29.9757485,13.4406482 29.9752499,13.4401496 L18.0152499,0.9825019 C17.8247675,0.78354255 17.5086266,0.77805745 17.3101659,0.96804119 C17.1117052,1.15902222 17.1052228,1.47416585 17.2962038,1.6731252 L28.4533854,13.2945453 L0.70179729,13.2945453 C0.42654525,13.2945453 0.2031523,13.5179382 0.2031523,13.7931902 C0.2031523,14.0689409 0.42654525,14.2918352 0.70179729,14.2918352 L28.4533854,14.2918352 L17.2962038,25.9147512 C17.1052228,26.1137106 17.1117052,26.4288542 17.3101659,26.6198352 C17.406903,26.7125832 17.5315642,26.7584585 17.6557268,26.7584585 C17.7868705,26.7584585 17.9175155,26.7075967 18.0152499,26.6053745 L29.9752499,14.1462309 L29.9757485,14.1462309 L29.9827295,14.1387512 C30.0011794,14.1193041 30.0096564,14.0948705 30.0246157,14.0734287" id="arrow-rigth" fill="#454545" fill-rule="nonzero"></path>
    </g>
</svg>