<?xml version="1.0" encoding="UTF-8"?>
<svg width="12px" height="20px" viewBox="0 0 12 20" version="1.1" xmlns="http://www.w3.org/2000/svg" xmlns:xlink="http://www.w3.org/1999/xlink">
    <!-- Generator: sketchtool 56.3 (101010) - https://sketch.com -->
    <title>B5C0AEE4-9D51-4AB7-8108-C88895A46CC7</title>
    <desc>Created with sketchtool.</desc>
    <g id="Page-1" stroke="none" stroke-width="1" fill="none" fill-rule="evenodd">
        <g id="RDC-1280+-HP" transform="translate(-1257.000000, -85.000000)" fill="#FFFFFF" stroke="#FFFFFF">
            <g id="More-News" transform="translate(-1.000000, 60.000000)">
                <g id="arrows" transform="translate(1211.000000, 0.000000)">
                    <path d="M60.9619754,30.1837297 L53,38.3943854 L45.0380246,30.1837297 C44.8130253,29.9497997 44.4320265,29.9382476 44.1920273,30.1548495 C43.949028,30.3714514 43.9340281,30.7382306 44.1620274,30.9721606 L52.5620014,39.6362362 C52.676001,39.7517572 52.8350005,39.8181818 53,39.8181818 C53.1679995,39.8181818 53.323999,39.7517572 53.4379986,39.6362362 L61.8379726,30.9721606 C62.0659719,30.7382306 62.050972,30.3714514 61.8079727,30.1548495 C61.5679735,29.9382476 61.1869747,29.9497997 60.9619754,30.1837297 Z" id="Fill-315-Copy" transform="translate(53.000000, 34.909091) scale(-1, 1) rotate(90.000000) translate(-53.000000, -34.909091) "></path>
                </g>
            </g>
        </g>
    </g>
</svg>