<?xml version="1.0" encoding="UTF-8"?>
<svg width="22px" height="21px" viewBox="0 0 22 21" version="1.1" xmlns="http://www.w3.org/2000/svg" xmlns:xlink="http://www.w3.org/1999/xlink">
    <!-- Generator: Sketch 52.6 (67491) - http://www.bohemiancoding.com/sketch -->
    <title>ic_favorite</title>
    <desc>Created with Sketch.</desc>
    <defs>
        <path d="M8.99993372,2.50992489 C6.63895111,-1.66431709 0,-0.44573516 0,4.78481723 C0,8.38647252 4.17821923,12.0692636 8.99993372,17 C13.8223982,12.0692636 17.9998674,8.38647252 17.9998674,4.78481723 C17.9998674,-0.463507756 11.3436665,-1.63340823 8.99993372,2.50992489 Z" id="path-1"></path>
        <filter x="-12.5%" y="-13.2%" width="125.0%" height="129.0%" filterUnits="objectBoundingBox" id="filter-2">
            <feMorphology radius="0.5" operator="dilate" in="SourceAlpha" result="shadowSpreadOuter1"></feMorphology>
            <feOffset dx="0" dy="0" in="shadowSpreadOuter1" result="shadowOffsetOuter1"></feOffset>
            <feGaussianBlur stdDeviation="0.25" in="shadowOffsetOuter1" result="shadowBlurOuter1"></feGaussianBlur>
            <feComposite in="shadowBlurOuter1" in2="SourceAlpha" operator="out" result="shadowBlurOuter1"></feComposite>
            <feColorMatrix values="0 0 0 0 0.798947704   0 0 0 0 0.798947704   0 0 0 0 0.798947704  0 0 0 0.5 0" type="matrix" in="shadowBlurOuter1"></feColorMatrix>
        </filter>
    </defs>
    <g id="Symbols" stroke="none" stroke-width="1" fill="none" fill-rule="evenodd">
        <g id="icon-/-ic_favouriteFull" transform="translate(0.000000, -1.000000)" fill-rule="nonzero">
            <g id="ic_favorite" transform="translate(2.000000, 3.000000)">
                <g id="Shape" stroke="#d8d8d8" stroke-width="1">
                    <use fill="black" fill-opacity="1" filter="url(#filter-2)" xlink:href="#path-1"></use>
                    <path stroke-opacity="0.695822011" stroke="#FFFFFF" stroke-width="1" d="M8.99996047,16.2868755 C9.88280263,15.3917864 11.6390703,13.6226538 12.0830176,13.1682798 C13.309328,11.913168 14.1887946,10.9611605 14.923371,10.0749254 C16.6665949,7.97180032 17.4998674,6.3145165 17.4998674,4.78481723 C17.4998674,0.213011928 11.6070914,-1.08356561 9.43513193,2.75610068 L8.99991214,3.52549752 L8.56472505,2.75608218 C6.38376416,-1.09987951 0.5,0.214458365 0.5,4.78481723 C0.5,6.31444625 1.33334744,7.97167103 3.07676872,10.0749146 C3.81132542,10.9610755 4.69067267,11.9129393 5.91717195,13.1682857 C6.35938009,13.6208945 8.11613992,15.3906706 8.99996047,16.2868755 Z" stroke-linejoin="square" fill="#FF0069" fill-rule="evenodd"></path>
                </g>
            </g>
        </g>
    </g>
</svg>
