<?xml version="1.0" encoding="UTF-8"?>
<svg width="14px" height="14px" viewBox="0 0 14 14" version="1.1" xmlns="http://www.w3.org/2000/svg" xmlns:xlink="http://www.w3.org/1999/xlink">
    <!-- Generator: Sketch 52.6 (67491) - http://www.bohemiancoding.com/sketch -->
    <title>home (1)</title>
    <desc>Created with Sketch.</desc>
    <g id="Symbols" stroke="none" stroke-width="1" fill="none" fill-rule="evenodd">
        <g id="station-page-/-social" transform="translate(-9.000000, -33.000000)" fill="#FFFFFF">
            <g id="Social---Follow">
                <g id="social---follow" transform="translate(0.000000, 24.000000)">
                    <g id="home-(1)" transform="translate(9.000000, 9.000000)">
                        <rect id="Rectangle-2" x="5" y="9" width="4" height="5"></rect>
                        <path d="M1.1506719,6.70972162 C1.29110411,6.70972162 1.40496292,6.81852902 1.40496292,6.9527309 L1.40496292,13.7569907 C1.40496292,13.8911926 1.51882172,14 1.65925393,14 L5.2193281,14 C5.35976031,14 5.47361912,13.8911926 5.47361912,13.7569907 L5.47361912,9.86884225 C5.47361912,9.73464038 5.58747792,9.62583297 5.72791013,9.62583297 L8.27082025,9.62583297 C8.41125246,9.62583297 8.52511127,9.73464038 8.52511127,9.86884225 L8.52511127,13.7569907 C8.52511127,13.8911926 8.63897007,14 8.77940228,14 L12.3394765,14 C12.4799087,14 12.5937675,13.8911926 12.5937675,13.7569907 L12.5937675,6.9527309 C12.5937675,6.81852902 12.7076263,6.70972162 12.8480585,6.70972162 L13.7444343,6.70972162 C13.8848665,6.71038989 13.9992975,6.60212926 13.9999968,6.46792739 C14.0003464,6.40161623 13.9723426,6.3380693 13.922438,6.29198867 L7.1773689,0.0682780135 C7.07879935,-0.0227593378 6.92247395,-0.0227593378 6.82390439,0.0682780135 L0.07756383,6.29198867 C-0.0234214883,6.38527385 -0.0261551167,6.53909873 0.0714608457,6.63560379 C0.119362915,6.68296022 0.185351433,6.70972162 0.254296084,6.70972162 L1.1506719,6.70972162 Z" id="Shape" fill-rule="nonzero"></path>
                        <path d="M12.1533857,14 L8.71779964,14 C8.44672576,14 8.22700163,13.7897262 8.22700163,13.5303112 L8.22700163,9.77280061 L5.77301158,9.77280061 L5.77301158,13.5303112 C5.77301158,13.7897262 5.55328745,14 5.28221357,14 L1.84662751,14 C1.57555363,14 1.3558295,13.7897262 1.3558295,13.5303112 L1.3558295,6.95466769 L0.490798009,6.95466769 C0.219724134,6.95466769 0,6.74439388 0,6.48497887 C0,6.35751707 0.0541104805,6.23554475 0.149938792,6.14703776 L6.65914739,0.132672414 C6.84881014,-0.044224138 7.15123374,-0.044224138 7.34086582,0.132672414 L13.8503198,6.14727261 C14.0451973,6.32754505 14.0504734,6.62491678 13.862099,6.8114126 C13.7696142,6.90297256 13.6422828,6.95466769 13.5092152,6.95466769 L12.6441837,6.95466769 L12.6441837,13.5303112 C12.6441837,13.7896968 12.4244289,14 12.1533857,14 Z M5.77301158,9.30311179 L8.22700163,9.30311179 C8.4980755,9.30311179 8.71779964,9.51338561 8.71779964,9.77280061 L8.71779964,13.5303112 L12.1533857,13.5303112 L12.1533857,6.95466769 C12.1533857,6.69525268 12.3731098,6.48497887 12.6441837,6.48497887 L13.5116692,6.48497887 L7.0000066,0.470613521 L0.490798009,6.48497887 L1.3558295,6.48497887 C1.62690338,6.48497887 1.84662751,6.69525268 1.84662751,6.95466769 L1.84662751,13.5303112 L5.28221357,13.5303112 L5.28221357,9.77280061 C5.28221357,9.51338561 5.50193771,9.30311179 5.77301158,9.30311179 Z" id="Shape" fill-rule="nonzero"></path>
                    </g>
                </g>
            </g>
        </g>
    </g>
</svg>