<?xml version="1.0" encoding="UTF-8"?>
<svg width="16px" height="16px" viewBox="0 0 16 16" version="1.1" xmlns="http://www.w3.org/2000/svg" xmlns:xlink="http://www.w3.org/1999/xlink">
    <g class="svg-icon" stroke="none" stroke-width="1" fill="#000000" fill-rule="evenodd">
        <g transform="translate(-170.000000, -1049.000000)" >
            <g transform="translate(170.000000, 1049.000000)">
                <path d="M8,0 C12.418278,0 16,3.581722 16,8 C16,12.418278 12.418278,16 8,16 C3.581722,16 0,12.418278 0,8 C0,3.581722 3.581722,0 8,0 Z M7.73333333,3.27897135 C7.32832452,3.27897135 7,3.60729587 7,4.01230469 L7,8.03691406 C7,8.24110794 7.08513658,8.43605549 7.23491918,8.57483702 L11.3682525,12.4045896 C11.6653392,12.6798562 12.1293231,12.6621675 12.4045896,12.3650808 C12.6798562,12.0679942 12.6621675,11.6040102 12.3650808,11.3287437 L8.46666667,7.71665619 L8.46666667,4.01230469 C8.46666667,3.60729587 8.13834215,3.27897135 7.73333333,3.27897135 Z" id="Combined-Shape"></path>
            </g>
        </g>
    </g>
</svg>