<?xml version="1.0" encoding="utf-8"?>
<!-- Generator: Adobe Illustrator 23.0.0, SVG Export Plug-In . SVG Version: 6.00 Build 0)  -->
<svg class="stations-carousel-news-arrow" version="1.1" xmlns="http://www.w3.org/2000/svg" xmlns:xlink="http://www.w3.org/1999/xlink" x="0px" y="0px"
	 viewBox="0 0 40 40" style="enable-background:new 0 0 40 40;" xml:space="preserve">
<style type="text/css">
	.stations-carousel-news-arrow .st0{opacity:0.4;fill:#444444;}
	.stations-carousel-news-arrow .st1{fill:#FFFFFF;}
</style>
<g id="Layer_1">
	<rect x="0" class="st0" width="40" height="40"/>
	<path class="st1" d="M4.8,19.8C4.7,19.8,4.7,19.8,4.8,19.8C4.7,19.9,4.7,20,4.7,20l0,0l0,0c0,0.1,0,0.1,0,0.2c0,0,0,0.1,0.1,0.1
		c0,0,0,0,0,0.1l0,0l0,0l12.3,12.8c0.2,0.2,0.5,0.2,0.7,0s0.2-0.5,0-0.7L6.4,20.6h28.4c0.3,0,0.5-0.2,0.5-0.5s-0.2-0.5-0.5-0.5H6.4
		l11.4-12c0.2-0.2,0.2-0.5,0-0.7c-0.1-0.1-0.2-0.1-0.4-0.1c-0.1,0-0.3,0.1-0.4,0.2L4.8,19.8L4.8,19.8L4.8,19.8
		C4.8,19.7,4.8,19.7,4.8,19.8"/>
</g>
<g id="Layer_2">
</g>
</svg>
