<?xml version="1.0" encoding="utf-8"?>
<!-- Generator: Adobe Illustrator 23.0.0, SVG Export Plug-In . SVG Version: 6.00 Build 0)  -->
<svg class="stations-carousel-arrow" version="1.1" xmlns="http://www.w3.org/2000/svg" xmlns:xlink="http://www.w3.org/1999/xlink" x="0px" y="0px"
	 viewBox="0 0 40 40" style="enable-background:new 0 0 40 40;" xml:space="preserve">
<style type="text/css">
	.stations-carousel-arrow .st0{fill:#FFFFFF;}
</style>
<g id="Layer_1">
	<path class="st0" d="M0,0v40h40V0H0z M34.8,20.6H6.4l11.4,11.9c0.2,0.2,0.2,0.5,0,0.7s-0.5,0.2-0.7,0L4.8,20.4c0-0.1,0-0.1,0-0.1
		c-0.1,0-0.1-0.1-0.1-0.1c0-0.1,0-0.1,0-0.2c0,0,0-0.1,0.1-0.2L17,7c0.1-0.1,0.3-0.2,0.4-0.2c0.2,0,0.3,0,0.4,0.1
		c0.2,0.2,0.2,0.5,0,0.7l-11.4,12h28.4c0.3,0,0.5,0.2,0.5,0.5C35.3,20.4,35.1,20.6,34.8,20.6z"></path>
</g>
<g id="Layer_2">
</g>
</svg>
