<svg width="267" height="267" viewBox="0 0 267 267" xmlns="http://www.w3.org/2000/svg"><g fill="none" fill-rule="evenodd"><path d="M252.163 266.895c8.134 0 14.73-6.596 14.73-14.73V14.73c0-8.136-6.596-14.73-14.73-14.73H14.73C6.593 0 0 6.594 0 14.73v237.435c0 8.134 6.593 14.73 14.73 14.73h237.433z" fill="#221F20"></path><path d="M184.15 266.895V163.54h34.694l5.194-40.28H184.15V97.543c0-11.662 3.24-19.61 19.963-19.61l21.33-.01V41.9c-3.69-.49-16.35-1.587-31.08-1.587-30.754 0-51.807 18.772-51.807 53.245v29.705h-34.78v40.28h34.78v103.355h41.595z" fill="#FFF"></path></g></svg>
