<svg xmlns="http://www.w3.org/2000/svg" xmlns:xlink="http://www.w3.org/1999/xlink" viewBox="0 0 40 40"><defs><path id="a" d="M0 .01h17.99V18H0z"></path></defs><g fill="none" fill-rule="evenodd" transform="translate(1 1)"><circle cx="19" cy="19" r="19" stroke="#BDBDBD"></circle><g transform="translate(10 10.03)"><mask id="b" fill="#fff"><use xlink:href="#a"/></mask><path fill="#000" fill-rule="nonzero" d="M5.29.06A6.6 6.6 0 0 0 3.1.48 4.56 4.56 0 0 0 .47 3.11a6.6 6.6 0 0 0-.42 2.18C.01 6.25 0 6.56 0 9c0 2.45.01 2.75.05 3.71.05.96.2 1.61.42 2.19a4.5 4.5 0 0 0 2.64 2.63 6.6 6.6 0 0 0 2.18.42c.96.04 1.26.05 3.7.05 2.45 0 2.76-.01 3.72-.05a6.6 6.6 0 0 0 2.18-.42c.6-.23 1.1-.54 1.6-1.04s.8-1 1.03-1.6a6.6 6.6 0 0 0 .42-2.18c.04-.96.05-1.26.05-3.7 0-2.45 0-2.76-.05-3.72a6.6 6.6 0 0 0-.42-2.18c-.23-.6-.54-1.1-1.04-1.6s-1-.8-1.59-1.03a6.6 6.6 0 0 0-2.18-.42C11.75.02 11.44.01 9 .01a46.35 46.35 0 0 0-3.71.05zm7.34 1.62c.88.04 1.36.19 1.67.3a3.03 3.03 0 0 1 1.71 1.72 5 5 0 0 1 .31 1.67c.04.95.05 1.23.05 3.63s0 2.69-.05 3.64a4.98 4.98 0 0 1-.3 1.67 2.9 2.9 0 0 1-.68 1.03c-.32.32-.62.51-1.04.68-.31.12-.79.27-1.67.3-.95.05-1.23.06-3.63.06s-2.69-.01-3.64-.05a4.98 4.98 0 0 1-1.67-.31 2.79 2.79 0 0 1-1.03-.68 2.79 2.79 0 0 1-.68-1.03c-.12-.32-.27-.8-.3-1.67-.05-.95-.06-1.23-.06-3.64 0-2.4.01-2.68.05-3.63a5 5 0 0 1 .31-1.67c.17-.42.36-.72.68-1.04.31-.31.61-.5 1.03-.67.32-.12.8-.27 1.67-.31.95-.04 1.23-.05 3.64-.05 2.4 0 2.68 0 3.63.05z" mask="url(#b)"></path></g><path fill="#000" fill-rule="nonzero" d="M19 22.03a3 3 0 1 1 0-6 3 3 0 0 1 0 6m0-7.62a4.62 4.62 0 1 0 0 9.24 4.62 4.62 0 0 0 0-9.24m5.88-.18a1.08 1.08 0 1 1-2.16 0 1.08 1.08 0 0 1 2.16 0"></path></g></svg>
