<svg width="20" height="20" viewBox="0 0 20 20" xmlns="http://www.w3.org/2000/svg" xmlns:xlink="http://www.w3.org/1999/xlink"><defs><path id="a" d="M19.966 0H0v19.966h19.966V0z"/></defs><g fill="none" fill-rule="evenodd"><mask id="b" fill="#fff"><use xlink:href="#a"/></mask><path d="M17.663 19.966H2.303C1.03 19.966 0 18.934 0 17.66V2.304C0 1.03 1.03 0 2.303 0h15.36c1.272 0 2.303 1.03 2.303 2.303V17.66c0 1.274-1.03 2.306-2.303 2.306zM9.983 6.143c-2.12 0-3.84 1.72-3.84 3.84s1.72 3.84 3.84 3.84 3.84-1.72 3.84-3.84-1.72-3.84-3.84-3.84zm7.68-3.072c0-.423-.344-.767-.77-.767h-2.302c-.423 0-.767.344-.767.768v2.305c0 .424.344.768.768.768h2.304c.425 0 .77-.344.77-.768V3.07zm0 5.376h-1.738c.126.492.2 1.005.2 1.536 0 3.394-2.75 6.144-6.142 6.144-3.393 0-6.143-2.75-6.143-6.144 0-.53.075-1.044.202-1.536h-1.74v8.448c0 .423.345.767.77.767h13.822c.425 0 .77-.343.77-.766V8.446z" fill="#221F20" mask="url(#b)"/></g></svg>
