<svg xmlns="http://www.w3.org/2000/svg" width="64" height="64" viewBox="0 0 64 64"><path d="M3.583 15.761h56.803c1.425 0 2.581-2.45 2.581-3.88 0-1.427-1.156-3.881-2.581-3.881h-56.803c-1.427 0-2.583 2.454-2.583 3.881 0 1.43 1.156 3.88 2.583 3.88zm56.803 12.933h-56.803c-1.427 0-2.583 2.454-2.583 3.879 0 1.432 1.156 3.881 2.583 3.881h56.803c1.425 0 2.581-2.449 2.581-3.881 0-1.425-1.156-3.879-2.581-3.879zm0 20.694h-56.803c-1.427 0-2.583 2.452-2.583 3.882 0 1.427 1.156 3.877 2.583 3.877h56.803c1.425 0 2.581-2.45 2.581-3.877 0-1.43-1.156-3.882-2.581-3.882z" fill-rule="evenodd" clip-rule="evenodd" fill="#888"></path></svg>
