<svg xmlns="http://www.w3.org/2000/svg" viewBox="0 0 40 40"><g fill="none" fill-rule="evenodd" transform="translate(1 1)"><circle cx="19" cy="19" r="19" fill="#FFF" stroke="#BDBDBD"></circle><path fill="#000" fill-rule="nonzero" d="M23.59 11.46c1.23.9 2.1 2.2 2.32 3.84.1.66.11 1.33.06 1.99a8.26 8.26 0 0 1-1.5 4.24 5.33 5.33 0 0 1-4.76 2.25c-.91-.07-1.42-.42-2-.82l-.36-.24c-.24 1.18-.5 2.33-.91 3.35a5.95 5.95 0 0 1-2 2.73l-.26.2-.05-.33c-.41-2.87.22-5.2.84-7.45.21-.78.42-1.56.58-2.32a3.63 3.63 0 0 1-.33-2.3c.08-.56.28-1.1.58-1.55.3-.45.7-.8 1.19-.93.37-.11.8-.1 1.25.08 1.51.59.98 2.22.46 3.84-.17.51-.34 1.02-.43 1.5-.2.96-.08 1.73 1.01 1.95.61.12 1.16 0 1.63-.27a3.99 3.99 0 0 0 1.52-1.92c.36-.86.55-1.85.56-2.8 0-1.27-.32-2.46-1.02-3.15a4.31 4.31 0 0 0-2.76-1.26 5.42 5.42 0 0 0-2.83.59 5.48 5.48 0 0 0-2.17 1.94c-.56.9-.83 1.97-.64 3.15.06.36.23.64.4.9.37.6.7 1.16.06 2.3l-.08.12-.15-.03a3.25 3.25 0 0 1-2.16-1.4 4.77 4.77 0 0 1-.64-2.53 7.06 7.06 0 0 1 6.54-7.07 10.5 10.5 0 0 1 1.12-.06c1.86 0 3.6.5 4.93 1.46z"></path></g></svg>
