<svg width="38" height="38" xmlns="http://www.w3.org/2000/svg"><g fill="none" fill-rule="nonzero"><circle fill="#000" cx="19" cy="19" r="19"/><path d="M23.587 11.46c1.234.898 2.094 2.193 2.324 3.84.093.662.112 1.331.061 1.988-.121 1.571-.642 3.077-1.503 4.243-.871 1.177-2.09 2.008-3.596 2.213-.373.05-.763.063-1.167.032-.908-.07-1.412-.415-2.003-.817-.115-.078-.233-.158-.356-.238-.235 1.179-.501 2.328-.908 3.345-.448 1.119-1.064 2.077-1.99 2.738l-.274.196-.047-.33c-.41-2.865.223-5.191.839-7.452.213-.78.423-1.553.584-2.322-.364-.648-.46-1.493-.335-2.293a3.924 3.924 0 0 1 .58-1.552c.301-.452.704-.794 1.19-.934.377-.108.798-.094 1.254.083 1.51.59.983 2.217.456 3.843-.166.51-.331 1.022-.428 1.498-.194.954-.083 1.734 1.012 1.949a2.247 2.247 0 0 0 1.63-.27c.649-.386 1.162-1.085 1.516-1.925.36-.853.554-1.846.56-2.802.006-1.26-.315-2.448-1.017-3.148a4.313 4.313 0 0 0-2.759-1.256c-.964-.074-1.954.145-2.834.59-.881.446-1.65 1.117-2.17 1.945a4.467 4.467 0 0 0-.637 3.147c.058.355.232.637.398.907.37.598.71 1.15.059 2.284l-.074.129-.147-.032c-1.024-.223-1.72-.71-2.164-1.399-.437-.677-.625-1.542-.641-2.534v-.005c.022-1.872.707-3.529 1.859-4.772 1.158-1.248 2.785-2.077 4.683-2.286a10.502 10.502 0 0 1 1.12-.063c1.86-.004 3.606.5 4.925 1.46z" fill="#FFF"/></g></svg>