<svg xmlns="http://www.w3.org/2000/svg" viewBox="0 0 40 40"><circle cx="19" cy="19" r="19" fill="none" stroke="#BDBDBD" transform="translate(1 1)"/><g transform="translate(14 22.08)"><defs><filter id="a" width="4.03" height="4.03" x="0" y=".01" filterUnits="userSpaceOnUse"><feColorMatrix values="1 0 0 0 0 0 1 0 0 0 0 0 1 0 0 0 0 0 1 0"/></filter></defs><mask id="b" width="4.03" height="4.03" x="0" y=".01" maskUnits="userSpaceOnUse"><path fill="#FFF" d="M0 .01h4.03v4.02H0z" filter="url(#a)"/></mask><path d="M4.03 2.02a2.02 2.02 0 1 1-4.03 0 2.02 2.02 0 0 1 4.03 0" mask="url(#b)"/></g><path d="M14 16.14v2.78s6.76.2 6.97 7.2h2.98s.35-9.52-9.95-9.98"/><g transform="translate(14 11)"><defs><filter id="c" width="14.99" height="15.09" x="0" y=".02" filterUnits="userSpaceOnUse"><feColorMatrix values="1 0 0 0 0 0 1 0 0 0 0 0 1 0 0 0 0 0 1 0"/></filter></defs><mask id="d" width="14.99" height="15.09" x="0" y=".02" maskUnits="userSpaceOnUse"><path fill="#FFF" d="M0 .02h14.99v15.09H0z" filter="url(#c)"/></mask><path d="M0 .02v2.83s11-.17 12.22 12.26H15S15.3.86 0 0" mask="url(#d)"/></g></svg>
