<svg width="24" height="20" viewBox="0 0 24 20" xmlns="http://www.w3.org/2000/svg"><path d="M24 2.436c-.883.398-1.832.667-2.828.788 1.016-.62 1.797-1.6 2.165-2.77-.95.575-2.005.99-3.127 1.216C19.312.697 18.032.09 16.616.09c-2.72 0-4.924 2.24-4.924 5.003 0 .392.044.774.128 1.14-4.092-.208-7.72-2.2-10.15-5.228-.423.74-.666 1.6-.666 2.516 0 1.737.87 3.27 2.19 4.166-.806-.026-1.566-.25-2.23-.626v.063c0 2.425 1.697 4.447 3.95 4.907-.413.114-.848.175-1.297.175-.318 0-.626-.03-.927-.09.627 1.988 2.445 3.435 4.6 3.475-1.685 1.343-3.808 2.143-6.115 2.143-.398 0-.79-.024-1.175-.07 2.18 1.42 4.767 2.248 7.548 2.248 9.057 0 14.01-7.624 14.01-14.237 0-.216-.006-.432-.015-.647.962-.705 1.797-1.587 2.457-2.59" fill="#221F20" fill-rule="evenodd"/></svg>
