<svg xmlns="http://www.w3.org/2000/svg" viewBox="0 0 40 40"><g fill="none" fill-rule="evenodd" transform="translate(1 1)"><circle cx="19" cy="19" r="19" fill="#000" stroke="#BDBDBD"></circle><path fill="#FFF" fill-rule="nonzero" d="M29.04 12.74c-.66.29-1.38.49-2.13.58a3.7 3.7 0 0 0 1.63-2.05c-.71.43-1.5.73-2.35.9a3.7 3.7 0 0 0-6.3 3.38 10.5 10.5 0 0 1-7.63-3.87 3.69 3.69 0 0 0 1.14 4.94 3.71 3.71 0 0 1-1.68-.46v.04a3.7 3.7 0 0 0 2.97 3.63 3.64 3.64 0 0 1-1.67.07 3.7 3.7 0 0 0 3.46 2.57A7.44 7.44 0 0 1 11 24a10.46 10.46 0 0 0 5.68 1.66c6.8 0 10.53-5.64 10.53-10.53 0-.16 0-.32-.02-.48a7.54 7.54 0 0 0 1.85-1.91"></path></g></svg>
