<?xml version="1.0" encoding="utf-8"?>
<!-- Generator: Adobe Illustrator 22.1.0, SVG Export Plug-In . SVG Version: 6.00 Build 0)  -->
<svg class="inline-related-listen" version="1.1" id="Layer_1" xmlns="http://www.w3.org/2000/svg" xmlns:xlink="http://www.w3.org/1999/xlink" x="0px" y="0px"
	 viewBox="0 0 40 40" style="enable-background:new 0 0 40 40;" xml:space="preserve">
<style type="text/css">
	.inline-related-listen .st0{fill:#FFFFFF;}
	.inline-related-listen .st1{filter:url(#Adobe_OpacityMaskFilter);}
	.inline-related-listen .st2{mask:url(#mask-2_1_);fill:#FFFFFF;}
</style>
<g id="Group" transform="translate(6.000000, 9.000000)">
	<path id="Fill-1" class="st0" d="M26.6,12.5c-0.1-0.1-0.3,0-0.4,0.1C26,12.6,26,12.8,26,12.9l0,4.3c0,0.2,0.1,0.3,0.2,0.4
		c0.1,0.1,0.2,0.1,0.3,0.1c0.1,0,0.1,0,0.2,0c0.8-0.3,1.7-1,1.7-2.6C28.3,13.4,27.4,12.8,26.6,12.5"/>
	<path id="Fill-3" class="st0" d="M2.2,12.5c-0.1-0.1-0.3-0.1-0.4-0.1C0.9,12.8,0,13.4,0,15c0,1.6,0.9,2.3,1.7,2.6
		c0.1,0,0.1,0,0.2,0c0.1,0,0.2,0,0.3-0.1c0.1-0.1,0.2-0.2,0.2-0.4l0-4.3C2.4,12.8,2.3,12.6,2.2,12.5"/>
	<g id="Group-7" transform="translate(2.833000, 0.410360)">
		<defs>
			<filter id="Adobe_OpacityMaskFilter" filterUnits="userSpaceOnUse" x="0" y="0.1" width="22.7" height="21.2">
				<feColorMatrix  type="matrix" values="1 0 0 0 0  0 1 0 0 0  0 0 1 0 0  0 0 0 1 0"/>
			</filter>
		</defs>
		<mask maskUnits="userSpaceOnUse" x="0" y="0.1" width="22.7" height="21.2" id="mask-2_1_">
			<g class="st1">
				<polygon id="path-1_1_" class="st0" points="0,0.1 22.7,0.1 22.7,21.2 0,21.2 				"/>
			</g>
		</mask>
		<path id="Fill-5" class="st2" d="M20.1,8c-0.2-4.5-4-8-8.8-8c-4.8,0-8.5,3.5-8.8,8H2.4C0.7,8,0,9.7,0,11.2v7.1
			c0,1.9,0.8,2.9,2.4,2.9h1.8c0.3,0,0.5-0.2,0.5-0.5V8.5C4.7,8.2,4.5,8,4.2,8H3.5C3.7,4,7,1,11.3,1c4.3,0,7.6,3,7.8,7h-0.8
			c-0.3,0-0.5,0.2-0.5,0.5v12.3c0,0.3,0.2,0.5,0.5,0.5h1.8c1.6,0,2.4-1,2.4-2.9v-7.1C22.7,9.8,21.7,8.2,20.1,8"/>
	</g>
</g>
</svg>
