<?xml version="1.0" encoding="utf-8"?>
<!-- Generator: Adobe Illustrator 22.1.0, SVG Export Plug-In . SVG Version: 6.00 Build 0)  -->
<svg class="inline-related-watch" version="1.1" id="Layer_1" xmlns="http://www.w3.org/2000/svg" xmlns:xlink="http://www.w3.org/1999/xlink" x="0px" y="0px"
	 viewBox="0 0 40 40" style="enable-background:new 0 0 40 40;" xml:space="preserve">
<style type="text/css">
	.inline-related-watch .st0{filter:url(#Adobe_OpacityMaskFilter);}
	.inline-related-watch .st1{fill:#FFFFFF;}
	.inline-related-watch .st2{mask:url(#mask-2_1_);fill:#FFFFFF;}
	.inline-related-watch .st3{filter:url(#Adobe_OpacityMaskFilter_1_);}
	.inline-related-watch .st4{mask:url(#mask-4_1_);fill:#FFFFFF;}
</style>
<g id="Group" transform="translate(7.000000, 8.000000)">
	<g id="Group-3" transform="translate(0.000000, 9.000000)">
		<defs>
			<filter id="Adobe_OpacityMaskFilter" filterUnits="userSpaceOnUse" x="0" y="0" width="18.9" height="13.9">
				<feColorMatrix  type="matrix" values="1 0 0 0 0  0 1 0 0 0  0 0 1 0 0  0 0 0 1 0"/>
			</filter>
		</defs>
		<mask maskUnits="userSpaceOnUse" x="0" y="0" width="18.9" height="13.9" id="mask-2_1_">
			<g class="st0">
				<polygon id="path-1_1_" class="st1" points="0,0 18.9,0 18.9,13.9 0,13.9 				"/>
			</g>
		</mask>
		<path id="Fill-1" class="st2" d="M18.9,13c0,0.5-0.6,0.9-1.3,0.9H1.3C0.6,13.9,0,13.5,0,13V1C0,0.4,0.6,0,1.3,0h16.4
			c0.7,0,1.3,0.4,1.3,0.9V13z"/>
	</g>
	<path id="Fill-4" class="st1" d="M8,5c0,1.7-1.3,3-3,3C3.3,8,2,6.7,2,5c0-1.7,1.3-3,3-3C6.7,2,8,3.3,8,5"/>
	<path id="Fill-6" class="st1" d="M17,4c0,2.2-1.8,4-4,4c-2.2,0-4-1.8-4-4c0-2.2,1.8-4,4-4C15.2,0,17,1.8,17,4"/>
	<g id="Group-10" transform="translate(20.000000, 8.000000)">
		<defs>
			<filter id="Adobe_OpacityMaskFilter_1_" filterUnits="userSpaceOnUse" x="0" y="0" width="6" height="16">
				<feColorMatrix  type="matrix" values="1 0 0 0 0  0 1 0 0 0  0 0 1 0 0  0 0 0 1 0"/>
			</filter>
		</defs>
		<mask maskUnits="userSpaceOnUse" x="0" y="0" width="6" height="16" id="mask-4_1_">
			<g class="st3">
				<polygon id="path-3_1_" class="st1" points="0,0 6,0 6,16 0,16 				"/>
			</g>
		</mask>
		<path id="Fill-8" class="st4" d="M6,15.2c0,0-0.1,0.8-0.8,0.8C4.5,16,0,11.5,0,10.9V5.1C0,4.5,4.4,0,5.2,0C6,0,6,0.8,6,0.8V15.2z"
			/>
	</g>
</g>
</svg>
