<?xml version="1.0" encoding="UTF-8"?>
<svg width="13px" height="19px" viewBox="0 0 13 19" version="1.1" xmlns="http://www.w3.org/2000/svg" xmlns:xlink="http://www.w3.org/1999/xlink">
    <g class="svg-icon" stroke="none" stroke-width="1" fill="#000000" fill-rule="evenodd">
        <g transform="translate(-170.000000, -1088.000000)">
            <path d="M176.5,1097.5 C174.964762,1097.5 173.714286,1096.22035 173.714286,1094.65 C173.714286,1093.07902 174.964762,1091.8 176.5,1091.8 C178.035238,1091.8 179.285714,1093.07902 179.285714,1094.65 C179.285714,1096.22035 178.035238,1097.5 176.5,1097.5 Z M176.5,1088 C172.915714,1088 170,1090.983 170,1094.65 C170,1098.2125 175.995476,1106.51835 176.252381,1106.87017 C176.31119,1106.9525 176.400952,1107 176.5,1107 C176.599048,1107 176.68881,1106.9525 176.747619,1106.87017 C177.004524,1106.51835 183,1098.2125 183,1094.65 C183,1090.983 180.084286,1088 176.5,1088 L176.5,1088 Z"></path>
        </g>
    </g>
</svg>