<?xml version="1.0" encoding="utf-8"?>
<!-- Generator: Adobe Illustrator 23.0.1, SVG Export Plug-In . SVG Version: 6.00 Build 0)  -->
<svg version="1.1" class="loading-arrow" xmlns="http://www.w3.org/2000/svg" xmlns:xlink="http://www.w3.org/1999/xlink" x="0px" y="0px"
	 viewBox="0 0 18 18" style="enable-background:new 0 0 18 18;" xml:space="preserve">
<style type="text/css">
	.loading-arrow .st0{fill-rule:evenodd;clip-rule:evenodd;fill:#A6A6A6;stroke:none}
</style>
<g id="Symbols">
	<g>
		<g id="refresh">
			<path id="Shape" class="st0" d="M1.3,9c0-1.8,0.6-3.5,1.7-4.8l0.9,1.1C4,5.6,4.3,5.5,4.4,5.3l1.8-4.1c0.1-0.2-0.1-0.5-0.3-0.4
				L1.2,1.3C1,1.3,0.8,1.6,1,1.8l1.1,1.4C0.8,4.8,0,6.8,0,9c0,5,4,9,9,9c5,0,9-4,9-9c0-5-4-9-9-9C8.6,0,8.4,0.3,8.4,0.6
				C8.4,1,8.6,1.3,9,1.3c4.3,0,7.7,3.5,7.7,7.7c0,4.3-3.5,7.7-7.7,7.7C4.7,16.7,1.3,13.3,1.3,9z"/>
		</g>
	</g>
</g>
</svg>
