<?xml version="1.0" encoding="utf-8"?>
<!-- Generator: Adobe Illustrator 22.1.0, SVG Export Plug-In . SVG Version: 6.00 Build 0)  -->
<svg version="1.1" id="Layer_1" xmlns="http://www.w3.org/2000/svg" xmlns:xlink="http://www.w3.org/1999/xlink" x="0px" y="0px"
	 viewBox="0 0 216 227.6" style="enable-background:new 0 0 216 227.6;" xml:space="preserve">
<style type="text/css">
	.radiocom-purple-monogram{fill:#1F055E;}
</style>
<g>
	<path class="radiocom-purple-monogram" d="M0,27.9V63c8.2,15.1,12.9,32.4,12.9,50.8c0,18.4-4.7,35.7-12.9,50.8v35.1c20.7-22.7,33.4-52.8,33.4-85.9
		C33.4,80.7,20.7,50.6,0,27.9z"></path>
	<path class="radiocom-purple-monogram" d="M29.8,0L0,0v0c32.8,27.1,53.7,68.1,53.7,113.8c0,45.8-20.9,86.7-53.7,113.8v0h29.8c27.6-30,44.5-70,44.5-113.8
		C74.3,70,57.4,30,29.8,0z"></path>
	<path class="radiocom-purple-monogram" d="M216,82.9c0-45.6-36.8-82.6-82.3-82.9l0,0L56.2,0C68,15.5,77.4,33,84,51.7h34.7c19.3,0,35,14,35,31.3
		c0,17.3-15.7,31.3-35,31.3H94.5c0,13-1.4,25.7-4,38l50.5,75.3h75l-47.1-69.9C196.8,144.3,216,115.9,216,82.9z"></path>
	<path class="st0" d="M86,227.6V170c-6.6,21-16.8,40.5-29.8,57.6H86z"></path>
</g>
</svg>
