<?xml version="1.0" encoding="utf-8"?>
<!-- Generator: Adobe Illustrator 22.1.0, SVG Export Plug-In . SVG Version: 6.00 Build 0)  -->
<svg id="radiocom-header-logo-svg" version="1.1" id="Layer_1" xmlns="http://www.w3.org/2000/svg" xmlns:xlink="http://www.w3.org/1999/xlink" x="0px" y="0px"
   viewBox="0 0 428 52" style="enable-background:new 0 0 428 52;" xml:space="preserve">
<style type="text/css">
  #radiocom-header-logo-svg .st0{fill:#FFFFFF; filter: none; opacity: 1;}
</style>
<g>
  <path class="st0" d="M301.6,34.3c-3.4,3.5-8.1,5.6-12.1,5.6c-7.6,0-13.4-6.1-13.4-14.1c0-7.9,5.7-13.9,13.4-13.9
    c4.3,0,8.9,2.4,12.1,6.3l0.2,0.2l7.5-8.9l-0.1-0.1c-5-5.1-12.6-8.3-19.8-8.3c-15,0-26.3,10.7-26.3,24.9c0,14.4,11.1,25.3,25.9,25.3
    c7.1,0,14.9-3.4,20.3-9l0.2-0.2l-7.6-8L301.6,34.3z"/>
  <path class="st0" d="M218.2,1c-15.2,0-26.6,10.7-26.6,25c0,14.4,11.4,25.3,26.6,25.3c15.2,0,26.7-10.9,26.7-25.3
    C244.8,11.7,233.4,1,218.2,1z M218.3,40.4c-7.5,0-13.6-6.4-13.6-14.3c0-8,6-14.2,13.6-14.2c7.5,0,13.3,6.2,13.3,14.2
    C231.6,34.1,225.8,40.4,218.3,40.4z"/>
  <path class="st0" d="M253.8,39.1c-3.5,0-6,2.5-6,6c0,3.6,2.5,6.1,6,6.1c3.6,0,6.1-2.5,6.1-6.1C259.9,41.6,257.4,39.1,253.8,39.1z"
    />
  <path class="st0" d="M339.4,1c-15.2,0-26.6,10.7-26.6,25c0,14.4,11.4,25.3,26.6,25.3c15.2,0,26.7-10.9,26.7-25.3
    C366.1,11.7,354.6,1,339.4,1z M339.5,40.4c-7.5,0-13.6-6.4-13.6-14.3c0-8,6-14.2,13.6-14.2c7.5,0,13.3,6.2,13.3,14.2
    C352.8,34.1,347,40.4,339.5,40.4z"/>
  <polygon class="st0" points="414.1,1.5 401,30.2 388,1.6 388,1.5 374,1.5 374,50.7 385.5,50.7 385.5,19.9 396.8,45.7 396.9,45.9
    405.2,45.9 416.5,19.9 416.6,50.5 416.6,50.7 428,50.7 428,1.5  "/>
  <rect x="169.5" y="1.5" class="st0" width="12.9" height="49.3"/>
  <path class="st0" d="M134.2,1.5H113v49.3h20.7c15.7,0,26.7-10.1,26.7-24.6C160.4,11.6,149.6,1.5,134.2,1.5z M134.2,39h-8.4V13.2
    h7.8c8.1,0,13.5,5.2,13.5,12.9C147.2,33.8,142,39,134.2,39z"/>
  <path class="st0" d="M86.6,1.5H71.5L51.5,50.7H65l3.6-9h20.8l3.5,9h13.5L86.7,1.6L86.6,1.5z M72.2,32.2L79,13.4l6.8,18.8H72.2z"/>
  <path class="st0" d="M1,7.5v7.6c1.8,3.3,2.8,7,2.8,11c0,4-1,7.7-2.8,11v7.6c4.5-4.9,7.2-11.4,7.2-18.6C8.2,19,5.5,12.4,1,7.5z"/>
  <path class="st0" d="M7.4,1.5L1,1.5v0c7.1,5.9,11.6,14.7,11.6,24.6C12.6,36,8.1,44.9,1,50.7v0h6.4c6-6.5,9.6-15.1,9.6-24.6
    C17.1,16.6,13.4,8,7.4,1.5z"/>
  <path class="st0" d="M47.7,19.4c0-9.9-8-17.9-17.8-17.9l0,0l-16.8,0c2.6,3.4,4.6,7.1,6,11.2h7.5c4.2,0,7.6,3,7.6,6.8
    s-3.4,6.8-7.6,6.8h-5.2c0,2.8-0.3,5.6-0.9,8.2l10.9,16.3h16.2L37.5,35.6C43.6,32.7,47.7,26.6,47.7,19.4z"/>
  <path class="st0" d="M19.6,50.7V38.3c-1.4,4.6-3.6,8.8-6.4,12.5H19.6z"/>
</g>
</svg>
