<?xml version="1.0" encoding="utf-8"?>
<!-- Generator: Adobe Illustrator 22.1.0, SVG Export Plug-In . SVG Version: 6.00 Build 0)  -->
<svg id="search-hover-svg" version="1.1" id="Layer_1" xmlns="http://www.w3.org/2000/svg" xmlns:xlink="http://www.w3.org/1999/xlink" x="0px" y="0px"
	 viewBox="0 0 25 25" style="enable-background:new 0 0 25 25;" xml:space="preserve">
<style type="text/css">
	#search-hover-svg .st0{filter:url(#Adobe_OpacityMaskFilter);}
	#search-hover-svg .st1{fill:#FFFFFF;}
	#search-hover-svg .st2{mask:url(#mask-2_1_);fill:#FFFFFF;}
	#search-hover-svg .st3{fill:#3C00B7;}
</style>
<title>search</title>
<desc>Created with Sketch.</desc>
<g id="Nav_x2F_Footer">
	<g id="_x31_440-Nav" transform="translate(-1244.000000, -18.000000)">
		<g id="search" transform="translate(1244.000000, 18.000000)">
			<g id="Clip-2">
			</g>
			<defs>
				<filter id="Adobe_OpacityMaskFilter" filterUnits="userSpaceOnUse" x="0" y="0" width="25" height="25">
					<feColorMatrix  type="matrix" values="1 0 0 0 0  0 1 0 0 0  0 0 1 0 0  0 0 0 1 0"></feColorMatrix>
				</filter>
			</defs>
			<mask maskUnits="userSpaceOnUse" x="0" y="0" width="25" height="25" id="mask-2_1_">
				<g class="st0">
					<polygon id="path-1_1_" class="st1" points="0,0 25,0 25,25 0,25 					"></polygon>
				</g>
			</mask>
			<path id="Fill-1" class="st2" d="M8.9,16.1c-4,0-7.2-3.2-7.2-7.2s3.2-7.2,7.2-7.2s7.2,3.2,7.2,7.2S12.9,16.1,8.9,16.1 M24.8,23.6
				l-9-9c1.3-1.5,2-3.5,2-5.7c0-4.9-4-8.9-8.9-8.9S0,4,0,8.9c0,4.9,4,8.9,8.9,8.9c2.1,0,4.1-0.8,5.7-2l9,9c0.2,0.2,0.4,0.2,0.6,0.2
				c0.2,0,0.4-0.1,0.6-0.2C25.1,24.4,25.1,23.9,24.8,23.6"></path>
		</g>
	</g>
</g>
<circle class="st3" cx="8.9" cy="8.9" r="7.2"></circle>
</svg>
