<?xml version="1.0" encoding="UTF-8"?>
<svg width="25px" height="25px" viewBox="0 0 25 25" version="1.1" xmlns="http://www.w3.org/2000/svg" xmlns:xlink="http://www.w3.org/1999/xlink">
    <!-- Generator: Sketch 50.2 (55047) - http://www.bohemiancoding.com/sketch -->
    <title>search</title>
    <desc>Created with Sketch.</desc>
    <defs>
        <polygon id="path-1" points="0 0 25 0 25 25 0 25"></polygon>
    </defs>
    <g id="Nav/Footer" stroke="none" stroke-width="1" fill="none" fill-rule="evenodd">
        <g id="1440-Nav" transform="translate(-1244.000000, -18.000000)">
            <g id="search" transform="translate(1244.000000, 18.000000)">
                <mask id="mask-2" fill="white">
                    <use xlink:href="#path-1"></use>
                </mask>
                <g id="Clip-2"></g>
                <path d="M8.87920366,16.0920833 C4.90210376,16.0920833 1.66667361,12.8566667 1.66667361,8.87958333 C1.66667361,4.9025 4.90210376,1.66666667 8.87920366,1.66666667 C12.8563036,1.66666667 16.0921504,4.9025 16.0921504,8.87958333 C16.0921504,12.8566667 12.8563036,16.0920833 8.87920366,16.0920833 M24.7559365,23.5775 L15.7163155,14.5375 C16.9909041,13.0004167 17.758824,11.0279167 17.758824,8.87958333 C17.758824,3.98333333 13.7750574,0 8.87920366,0 C3.98334993,0 0,3.98333333 0,8.87958333 C0,13.7754167 3.98334993,17.75875 8.87920366,17.75875 C11.0279626,17.75875 13.0000542,16.9908333 14.5379772,15.71625 L23.5775982,24.75625 C23.7400989,24.91875 23.9534331,25 24.1667674,25 C24.3801016,25 24.5934358,24.91875 24.7559365,24.75625 C25.0813545,24.4308333 25.0813545,23.9029167 24.7559365,23.5775" id="Fill-1" fill="#FFFFFF" mask="url(#mask-2)"></path>
            </g>
        </g>
    </g>
</svg>