<?xml version="1.0" encoding="UTF-8"?>
<svg width="14px" height="14px" viewBox="0 0 14 14" version="1.1" xmlns="http://www.w3.org/2000/svg" xmlns:xlink="http://www.w3.org/1999/xlink">
    <title>91AEBD38-D320-4C34-B6B2-AD892D8AA2D8</title>
    <g id="Station-Nav-+-Bigger-Logo" stroke="none" stroke-width="1" fill="none" fill-rule="evenodd">
        <g id="1280+-92.9FM_ESPN--Nav-1A-Contact" transform="translate(-1088.000000, -75.000000)" fill="#FFFFFF">
            <g id="Group" transform="translate(1045.000000, 73.000000)">
                <g id="Group-7" transform="translate(43.000000, 2.000000)">
                    <path d="M9.99633578,9.4871 C9.73010245,9.22133333 9.37613578,9.0741 8.99930245,9.0741 C8.62270245,9.0741 8.26850245,9.22133333 8.00203578,9.4871 L7.73603578,9.7531 C6.48536911,8.7101 5.28440245,7.50866667 4.24373578,6.2601 L4.50973578,5.9941 C5.05923578,5.44366667 5.05923578,4.55 4.50973578,3.9991 L3.26140245,2.75076667 C2.99493578,2.48476667 2.64096911,2.338 2.26436911,2.338 C1.88753578,2.338 1.53356911,2.48476667 1.26710245,2.75076667 L0.582502448,3.437 C-0.0855308854,4.10433333 -0.191697552,5.1611 0.330035781,5.95233333 C2.33950245,8.9901 5.00743578,11.6571 8.04520245,13.6661 C8.37373578,13.8831 8.75500245,13.9974333 9.14840245,13.9974333 C9.68203578,13.9974333 10.1834691,13.79 10.5598358,13.4141 L11.2446691,12.7281 C11.7944024,12.1797667 11.7944024,11.2861 11.2446691,10.7354333 L9.99633578,9.4871" id="Fill-770"></path>
                    <path d="M6.99706911,-4.14483263e-16 C6.86826911,-4.14483263e-16 6.76373578,0.104766667 6.76373578,0.2331 C6.76373578,0.361433333 6.86826911,0.466433333 6.99706911,0.466433333 C10.5997358,0.466433333 13.5304024,3.39733333 13.5304024,7 C13.5304024,7.1281 13.6349358,7.2331 13.7637358,7.2331 C13.8925358,7.2331 13.9970691,7.1281 13.9970691,7 C13.9970691,3.14043333 10.8568691,-4.14483263e-16 6.99706911,-4.14483263e-16" id="Fill-771"></path>
                    <path d="M6.99706911,2.82076667 C9.30193578,2.82076667 11.1767691,4.69443333 11.1767691,7 C11.1767691,7.1281 11.2813024,7.2331 11.4101024,7.2331 C11.5391358,7.2331 11.6434358,7.1281 11.6434358,7 C11.6434358,4.438 9.55906911,2.35433333 6.99706911,2.35433333 C6.86826911,2.35433333 6.76373578,2.45676667 6.76373578,2.58743333 C6.76373578,2.716 6.86826911,2.82076667 6.99706911,2.82076667" id="Fill-772"></path>
                    <path d="M6.99706911,5.173 C8.00413578,5.173 8.82313578,5.992 8.82313578,7 C8.82313578,7.1281 8.92766911,7.2331 9.05646911,7.2331 C9.18550245,7.2331 9.28980245,7.1281 9.28980245,7 C9.28980245,5.7351 8.26126911,4.7061 6.99706911,4.7061 C6.86826911,4.7061 6.76373578,4.8111 6.76373578,4.93943333 C6.76373578,5.06776667 6.86826911,5.173 6.99706911,5.173" id="Fill-773"></path>
                </g>
            </g>
        </g>
    </g>
</svg>