<?xml version="1.0" encoding="UTF-8"?>
<svg width="18px" height="12px" viewBox="0 0 18 12" version="1.1" xmlns="http://www.w3.org/2000/svg" xmlns:xlink="http://www.w3.org/1999/xlink">
    <title>5F72B09D-A773-43D0-874F-5D1D65392C37</title>
    <g id="Station-Nav-+-Bigger-Logo" stroke="none" stroke-width="1" fill="none" fill-rule="evenodd">
        <g id="360-105.7-TheFan--Nav1A-Newsletter" transform="translate(-215.000000, -62.000000)" fill="#FFFFFF">
            <g id="Group-5" transform="translate(195.000000, 60.000000)">
                <g id="Group-4" transform="translate(20.000000, 0.000000)">
                    <path d="M16.5,2 C17.271,2 18,2.710775 18,3.4625 L18,12.2375 C18,12.989225 17.271,13.7 16.5,13.7 L1.5,13.7 C0.729,13.7 0,12.989225 0,12.2375 L0,3.4625 C0,2.710775 0.729,2 1.5,2 L16.5,2 Z M16.9906797,3.09123129 C16.8167714,2.873737 16.4964945,2.83623799 16.2746466,3.0072335 L16.2746466,3.0072335 L9.44989296,8.26409547 L2.6251393,3.0072335 C2.40380145,2.83673797 2.08301457,2.87423699 1.90910626,3.09123129 C1.73519795,3.30822559 1.77344758,3.62271734 1.99478543,3.79321286 L1.99478543,3.79321286 L6.6270704,7.36111918 L1.99070547,11.0100234 C1.7708976,11.1830188 1.73621794,11.4975106 1.91216623,11.7130049 C2.01314525,11.8360017 2.16104381,11.9 2.31047236,11.9 C2.42216127,11.9 2.53487018,11.8640009 2.62921926,11.7900029 L2.62921926,11.7900029 L7.4502024,7.99560252 L9.13471603,9.29306845 C9.22702513,9.36406659 9.33871404,9.40006564 9.44989296,9.40006564 C9.56107188,9.40006564 9.6727608,9.36406659 9.7650699,9.29306845 L9.7650699,9.29306845 L11.4495835,7.99560252 L16.2705667,11.7900029 C16.3649157,11.8640009 16.4776246,11.9 16.5898236,11.9 C16.7387421,11.9 16.8871507,11.8360017 16.9876197,11.7130049 C17.164078,11.4975106 17.1288883,11.1830188 16.9090805,11.0100234 L16.9090805,11.0100234 L12.2727155,7.36111918 L16.9050005,3.79321286 C17.1263383,3.62271734 17.164588,3.30822559 16.9906797,3.09123129 Z" id="Combined-Shape"></path>
                </g>
            </g>
        </g>
    </g>
</svg>