
<svg viewBox="0 0 36 26" version="1.1" xmlns="http://www.w3.org/2000/svg" xmlns:xlink="http://www.w3.org/1999/xlink">
    <g id="Page-1" stroke="none" stroke-width="1" fill="none" fill-rule="evenodd">
        <g id="email" fill-rule="nonzero">
            <rect id="Rectangle" fill="#1F055E" x="0.8" y="0.8" width="34.4" height="24.3"></rect>
            <path d="M22.7485692,12.7608719 L31.6467907,4.78037507 C32.0608365,4.40393654 32.0984771,3.76399104 31.7220718,3.34237988 C31.3456665,2.9282975 30.7057774,2.89065365 30.2842035,3.26709218 L18.0133905,14.2816836 L15.6194527,12.1435128 C15.6119246,12.135984 15.6043965,12.1284552 15.6043965,12.1209264 C15.5516997,12.068225 15.499003,12.0230524 15.4387781,11.9778798 L5.69740877,3.25956341 C5.27583483,2.88312488 4.63594581,2.92076873 4.2595405,3.34237988 C3.88313519,3.76399104 3.92077572,4.40393654 4.34234967,4.78037507 L13.3459646,12.8286309 L4.3799902,21.2232101 C3.97347246,21.6071774 3.95088815,22.2471229 4.33482156,22.6612053 C4.53808043,22.8720109 4.80909225,22.9849425 5.08010407,22.9849425 C5.32853157,22.9849425 5.57695908,22.8945972 5.77268984,22.7139067 L14.8741702,14.1988671 L17.343389,16.4047969 C17.5391198,16.5779587 17.7800192,16.6607751 18.0209186,16.6607751 C18.261818,16.6607751 18.5102455,16.5704299 18.6984481,16.3972682 L21.2354199,14.1235794 L30.2842035,22.7214355 C30.4799342,22.9096548 30.7358899,23 30.9843174,23 C31.2553292,23 31.5188129,22.8945972 31.7220718,22.6837916 C32.1060052,22.277238 32.090949,21.6297637 31.6844312,21.2457964 L22.7485692,12.7608719 Z" id="Path" fill="#FFFFFF"></path>
        </g>
    </g>
</svg>