<svg viewBox="0 0 302 302" xmlns="http://www.w3.org/2000/svg">
    <g fill-rule="evenodd">
        <path d="M151.001999,302 C67.6069863,302 0,234.381495 0,151.007997 C0,67.6025105 67.6069863,0 151.001999,0 C234.397013,0 302,67.6025105 302,151.007997 C302,234.381495 234.397013,302 151.001999,302 Z" fill="#000000"></path>
        <path d="M81.1625036,212.64958 L102.513691,177.063836 C121.834276,189.303899 142.170163,196.409106 159.460145,196.409106 C169.625102,196.409106 173.69228,193.364017 173.69228,187.27384 L173.69228,186.25881 C173.69228,180.168632 164.542624,177.063836 147.258614,171.988687 C114.715223,163.86845 88.2815569,152.703125 88.2815569,119.147439 L88.2815569,118.126439 C88.2815569,82.5466649 116.751798,63.2312482 154.371695,63.2312482 C178.780731,63.2312482 203.183794,70.3483971 222.504379,82.5466649 L208.905315,122.455242 C191.621305,113.302063 166.579199,103.898112 153.356393,103.898112 C144.206738,103.898112 140.13956,106.949171 140.13956,112.03029 L140.13956,113.04532 C140.13956,119.147439 149.289216,122.192528 166.579199,127.267676 C199.116617,136.402943 225.556255,147.627976 225.556255,180.168632 L225.556255,182.198691 C225.556255,218.739758 198.101316,237.069999 158.438872,237.069999 C130.983932,237.069999 103.534965,229.964792 81.1625036,212.64958" fill="#FFFFFF"></path>
    </g>
</svg>