<svg width="33" height="28" viewBox="0 0 33 28" xmlns="http://www.w3.org/2000/svg" role="presentation"><g fill="none" fill-rule="evenodd"><text font-family="Helvetica-Bold, Helvetica" font-size="9" font-weight="bold" letter-spacing=".327" fill="#FFF" transform="translate(0 5)"><tspan x="4.349" y="9">FULL</tspan></text><path d="M0 6h33v16H0V6zm23.511 2.522h1.354v5.313h3.208V15H23.51V8.522zm-5.824 0h1.353v5.313h3.208V15h-4.561V8.522zm-6.827 0h1.375v3.982c0 .445.053.77.158.975.164.364.522.545 1.073.545.548 0 .904-.181 1.068-.545.105-.205.158-.53.158-.975V8.522h1.375v3.982c0 .688-.107 1.225-.32 1.608-.399.703-1.16 1.055-2.281 1.055-1.122 0-1.884-.352-2.285-1.055-.214-.383-.321-.92-.321-1.608V8.522zm-5.825.01h4.592v1.137H6.38v1.49h2.843v1.125H6.38V15H5.035V8.531zM4 17h25v2H4v-2zm25 4v-6l3 3-3 3zM4 15v6l-3-3 3-3z" fill="#000"></path><path d="M6 24.5h21m-19-3h17m-19 6h21M6 .5h21m-21 3h21" stroke="#111"></path></g></svg>
