<svg width="33" height="28" viewBox="0 0 33 28" xmlns="http://www.w3.org/2000/svg" role="presentation"><path d="M0 0h33v29H0V0zm15.5 5h3v3h-3V5zm5 0h-7L17 2l3.5 3zM17 26l-3.5-3h7L17 26zm-1.5-6h3v3h-3v-3zM2.682 10.094h5.613v1.39h-3.97v1.822H7.8v1.375H4.325V18H2.682v-7.906zm7.269-.011h1.654v6.494h3.921V18H9.951v-7.917zm13.124 1.402h-4.19v1.681h3.846v1.375h-3.846v2.036h4.383V18h-6v-7.917h5.807v1.402zM26.369 18h-1.923l2.546-4.034-2.422-3.883h1.977l1.412 2.573 1.45-2.573h1.912L28.9 13.902 31.472 18h-2.009l-1.504-2.696L26.37 18z" fill="#111" fill-rule="evenodd"></path></svg>
