<svg xmlns="http://www.w3.org/2000/svg" role="presentation" viewBox="0 0 36 36" preserveAspectRatio="xMinYMin meet"><path fill-rule="evenodd" clip-rule="evenodd" fill="#007BB5" d="M5.4 0h25.2c3 0 5.4 2.4 5.4 5.4v25.2c0 3-2.4 5.4-5.4 5.4h-25.2c-3 0-5.4-2.4-5.4-5.4v-25.2c0-3 2.4-5.4 5.4-5.4zm4.8 14.7h3.6v11.6h-3.6v-11.6zm1.8-5.7c1.1 0 2.1.9 2.1 2.1 0 1.2-.9 2.1-2.1 2.1-1.2 0-2.1-.9-2.1-2.1.1-1.2 1-2.1 2.1-2.1m4.1 5.7h3.4v1.6c.5-.9 1.7-1.9 3.4-1.9 3.6 0 4.3 2.4 4.3 5.5v6.3h-3.6v-5.6c0-1.3 0-3.1-1.9-3.1s-2.2 1.5-2.2 3v5.7h-3.6v-11.5z"/></svg>
