<?xml version="1.0" encoding="UTF-8"?>
<svg viewBox="0 0 47 50" version="1.1" xmlns="http://www.w3.org/2000/svg" xmlns:xlink="http://www.w3.org/1999/xlink">
    <g id="Welcome" stroke="none" stroke-width="1" fill="none" fill-rule="evenodd">
        <g id="Desktop" transform="translate(-285.000000, -487.000000)" fill="#FFFFFF" fill-rule="nonzero">
            <g id="JZev" transform="translate(285.000000, 487.000000)">
                <path d="M0,6.5 L0,14.1 C1.8,17.4 2.8,21.1 2.8,25.1 C2.8,29.1 1.8,32.8 0,36.1 L0,43.7 C4.5,38.8 7.2,32.3 7.2,25.1 C7.2,18 4.5,11.4 0,6.5 Z" id="Path"></path>
                <path d="M6.4,0.5 L0,0.5 L0,0.5 C7.1,6.4 11.6,15.2 11.6,25.1 C11.6,35 7.1,43.9 0,49.7 L0,49.7 L6.4,49.7 C12.4,43.2 16,34.6 16,25.1 C16.1,15.6 12.4,7 6.4,0.5 Z" id="Path"></path>
                <path d="M46.7,18.4 C46.7,8.5 38.7,0.5 28.9,0.5 L28.9,0.5 L12.1,0.5 C14.7,3.9 16.7,7.6 18.1,11.7 L25.6,11.7 C29.8,11.7 33.2,14.7 33.2,18.5 C33.2,22.3 29.8,25.3 25.6,25.3 L20.4,25.3 C20.4,28.1 20.1,30.9 19.5,33.5 L30.4,49.8 L46.6,49.8 L36.5,34.6 C42.6,31.7 46.7,25.6 46.7,18.4 Z" id="Path"></path>
                <path d="M18.6,49.7 L18.6,37.3 C17.2,41.9 15,46.1 12.2,49.8 L18.6,49.8 L18.6,49.7 Z" id="Path"></path>
            </g>
        </g>
    </g>
</svg>