<?xml version="1.0" encoding="UTF-8"?>
<svg viewBox="0 0 20 20" version="1.1" xmlns="http://www.w3.org/2000/svg" xmlns:xlink="http://www.w3.org/1999/xlink">
    <title>75756A5E-120A-4932-810C-2FD980DB785E</title>
    <g id="Page-1" stroke="none" stroke-width="1" fill="none" fill-rule="evenodd">
        <g id="1280+-Video" transform="translate(-391.000000, -11.000000)" fill="#1F055E" fill-rule="nonzero">
            <g id="x" transform="translate(380.000000, 0.000000)">
                <g transform="translate(11.200000, 11.200000)" id="Fill-2221">
                    <path d="M1.28,1.28 C1.76,0.64 2.56,0.64 3.2,1.12 L3.36,1.28 L9.6,7.52 L15.84,1.28 C16.32,0.8 17.28,0.64 17.76,1.12 L17.92,1.28 C18.4,1.76 18.4,2.56 18.08,3.2 L17.92,3.36 L11.68,9.6 L17.92,15.84 C18.4,16.32 18.4,17.12 18.08,17.76 L17.92,17.92 C17.6,18.24 17.28,18.4 16.8,18.4 C16.48,18.4 16.16,18.24 15.84,18.08 L15.68,17.92 L9.6,11.68 L3.36,17.92 C3.2,18.08 2.88,18.24 2.56,18.4 L2.4,18.4 C2.08,18.4 1.6,18.24 1.28,17.92 C0.8,17.44 0.8,16.64 1.12,16 L1.28,15.84 L7.52,9.6 L1.28,3.36 C0.64,2.72 0.64,1.92 1.28,1.28 L1.28,1.28 Z"></path>
                </g>
            </g>
        </g>
    </g>
</svg>