<?xml version="1.0" encoding="UTF-8"?>
<svg width="30px" height="30px" viewBox="0 0 30 30" version="1.1" xmlns="http://www.w3.org/2000/svg" xmlns:xlink="http://www.w3.org/1999/xlink">
    <!-- Generator: Sketch 50.2 (55047) - http://www.bohemiancoding.com/sketch -->
    <title>Group</title>
    <desc>Created with Sketch.</desc>
    <defs>
        <polygon id="path-1" points="0 0 30 0 30 30 0 30"></polygon>
    </defs>
    <g id="Nav/Footer" stroke="none" stroke-width="1" fill="none" fill-rule="evenodd">
        <g id="1440-Nav" transform="translate(-1194.000000, -15.000000)">
            <g id="Group" transform="translate(1194.000000, 15.000000)">
                <mask id="mask-2" fill="white">
                    <use xlink:href="#path-1"></use>
                </mask>
                <g id="Clip-2"></g>
                <path d="M25.4105,24.352 C24.71,23.9835 23.284,23.463 20.806,22.5865 C19.8685,22.255 18.9045,21.914 18.022,21.5875 L18.022,19.094 C18.6185,18.7485 19.79,17.7705 19.904,15.3825 C20.119,15.2735 20.303,15.091 20.437,14.847 C20.603,14.546 20.694,14.1525 20.694,13.739 C20.694,13.01 20.4335,12.4355 20.0165,12.1585 C20.024,12.1365 20.031,12.114 20.038,12.092 C20.3375,11.1555 20.8955,9.4125 20.5285,7.944 C20.1095,6.2685 17.798,5.674 15.9455,5.674 C14.261,5.674 12.1965,6.1655 11.5215,7.515 C10.6465,7.4455 10.157,7.8175 9.9225,8.127 C9.1515,9.1445 9.691,11.0655 9.9805,12.097 C9.9855,12.115 9.9905,12.133 9.9955,12.151 C9.5715,12.4245 9.306,13.003 9.306,13.739 C9.306,14.532 9.614,15.142 10.096,15.385 C10.211,17.771 11.382,18.749 11.978,19.094 L11.978,21.5875 C11.1625,21.8855 10.289,22.171 9.4405,22.448 C7.5665,23.0605 5.794,23.6435 4.5905,24.356 C2.2745,21.783 1,18.4775 1,15 C1,7.28 7.2805,1 15,1 C22.72,1 29,7.28 29,15 C29,18.474 27.7265,21.7775 25.4105,24.352 M15,0 C6.729,0 0,6.729 0,15 C0,18.862 1.463,22.528 4.1205,25.3255 C4.1205,25.3255 4.1205,25.326 4.121,25.3265 C4.122,25.327 4.122,25.328 4.122,25.328 L4.1225,25.3285 C4.1245,25.3305 4.1265,25.3325 4.1285,25.3345 L4.13,25.3365 C4.13,25.3365 4.13,25.337 4.1305,25.337 C4.1305,25.3375 4.131,25.3375 4.1315,25.338 C4.132,25.338 4.132,25.3385 4.133,25.3395 C4.133,25.34 4.1335,25.3405 4.134,25.3405 L4.134,25.341 L4.1365,25.343 C4.137,25.3435 4.1375,25.344 4.138,25.345 C4.1395,25.346 4.1405,25.3475 4.142,25.349 L4.1425,25.3495 C4.143,25.35 4.144,25.351 4.1445,25.352 C7.025,28.262 11.083,30 15,30 C18.9255,30 22.984,28.262 25.856,25.351 C25.8585,25.348 25.8595,25.3445 25.8625,25.3415 C28.5305,22.54 30,18.8675 30,15 C30,6.729 23.271,0 15,0" id="Fill-1" fill="#FFFFFF" mask="url(#mask-2)"></path>
            </g>
        </g>
    </g>
</svg>