<?xml version="1.0" encoding="utf-8"?>
<!-- Generator: Adobe Illustrator 22.1.0, SVG Export Plug-In . SVG Version: 6.00 Build 0)  -->
<svg version="1.1" id="Layer_1" xmlns="http://www.w3.org/2000/svg" xmlns:xlink="http://www.w3.org/1999/xlink" x="0px" y="0px"
	 viewBox="0 0 30 30" style="enable-background:new 0 0 30 30;" xml:space="preserve">
<style type="text/css">
	.st0{fill:#3C00B7;}
	.st1{filter:url(#Adobe_OpacityMaskFilter);}
	.st2{fill:#FFFFFF;}
	.st3{mask:url(#mask-2_1_);fill:#FFFFFF;}
</style>
<circle class="st0" cx="15" cy="15" r="14"/>
<title>Group</title>
<desc>Created with Sketch.</desc>
<g id="Nav_x2F_Footer">
	<g id="_x31_440-Nav" transform="translate(-1194.000000, -15.000000)">
		<g id="Group" transform="translate(1194.000000, 15.000000)">
			<g id="Clip-2">
			</g>
			<defs>
				<filter id="Adobe_OpacityMaskFilter" filterUnits="userSpaceOnUse" x="0" y="0" width="30" height="30">
					<feColorMatrix  type="matrix" values="1 0 0 0 0  0 1 0 0 0  0 0 1 0 0  0 0 0 1 0"/>
				</filter>
			</defs>
			<mask maskUnits="userSpaceOnUse" x="0" y="0" width="30" height="30" id="mask-2_1_">
				<g class="st1">
					<polygon id="path-1_1_" class="st2" points="0,0 30,0 30,30 0,30 					"/>
				</g>
			</mask>
			<path id="Fill-1" class="st3" d="M25.4,24.4c-0.7-0.4-2.1-0.9-4.6-1.8c-0.9-0.3-1.9-0.7-2.8-1v-2.5c0.6-0.3,1.8-1.3,1.9-3.7
				c0.2-0.1,0.4-0.3,0.5-0.5c0.2-0.3,0.3-0.7,0.3-1.1c0-0.7-0.3-1.3-0.7-1.6c0,0,0,0,0-0.1c0.3-0.9,0.9-2.7,0.5-4.1
				c-0.4-1.7-2.7-2.3-4.6-2.3c-1.7,0-3.7,0.5-4.4,1.8c-0.9-0.1-1.4,0.3-1.6,0.6c-0.8,1-0.2,2.9,0.1,4c0,0,0,0,0,0.1
				c-0.4,0.3-0.7,0.9-0.7,1.6c0,0.8,0.3,1.4,0.8,1.6c0.1,2.4,1.3,3.4,1.9,3.7v2.5c-0.8,0.3-1.7,0.6-2.5,0.9
				c-1.9,0.6-3.6,1.2-4.9,1.9C2.3,21.8,1,18.5,1,15C1,7.3,7.3,1,15,1c7.7,0,14,6.3,14,14C29,18.5,27.7,21.8,25.4,24.4 M15,0
				C6.7,0,0,6.7,0,15c0,3.9,1.5,7.5,4.1,10.3c0,0,0,0,0,0c0,0,0,0,0,0l0,0c0,0,0,0,0,0l0,0c0,0,0,0,0,0c0,0,0,0,0,0c0,0,0,0,0,0
				c0,0,0,0,0,0v0l0,0c0,0,0,0,0,0c0,0,0,0,0,0l0,0c0,0,0,0,0,0C7,28.3,11.1,30,15,30c3.9,0,8-1.7,10.9-4.6c0,0,0,0,0,0
				C28.5,22.5,30,18.9,30,15C30,6.7,23.3,0,15,0"/>
		</g>
	</g>
</g>
</svg>
